<?xml version="1.0" encoding="utf-8"?>
<!-- Generator: Adobe Illustrator 24.1.2, SVG Export Plug-In . SVG Version: 6.00 Build 0)  -->
<svg version="1.1" id="Layer_1" xmlns="http://www.w3.org/2000/svg" xmlns:xlink="http://www.w3.org/1999/xlink" x="0px" y="0px"
	 viewBox="0 0 264 378" style="enable-background:new 0 0 264 378;" xml:space="preserve">
<style type="text/css">
	.st0{fill:#603813;}
	.st1{fill:#009245;}
	.st2{fill:none;stroke:#000000;stroke-miterlimit:10;}
</style>
<g>
	<g>
		<path class="st0" d="M186.75,253.64c-3.03,0.16-6.31,0.02-9.27,0.7c-2.1,0.48-4.16,1.98-5.19,3.88c-0.92,1.7-1.17,3.43-1.32,5.34
			c-0.02,0.27-0.04,0.53-0.07,0.8c-0.02,0.18-0.13,1.16-0.02,0.24c0.12-0.98-0.05,0.24-0.09,0.45c-0.05,0.28-0.11,0.55-0.17,0.82
			c-0.27,1.24-0.67,2.42-1.08,3.62c-0.25,0.73,0.04,0.08,0.13-0.27c-0.09,0.33-0.29,0.65-0.44,0.96c-0.24,0.5-0.5,1-0.77,1.49
			c-0.65,1.16-1.4,2.26-2.21,3.32c-1.54,2-0.84,5.64,0.94,7.27c0.77,0.7,1.66,1.22,2.65,1.54c1.28,0.41,3.51,0.24,4.62-0.6
			c2.51-1.9,4.59-3.96,6.24-6.67c1.56-2.56,0.76-5.96-1.55-7.74c-2.2-1.7-5.93-1.81-7.88,0.47c-1.84,2.16-3.64,4.35-5.38,6.59
			c-1.85,2.38-3.96,4.77-5.35,7.45c-1.76,3.4-2.41,7.05-0.88,10.66c0.4,0.95,0.4,0.96,0,0.01c0.04,0.12,0.08,0.25,0.12,0.37
			c0.04,0.17,0.08,0.64,0.19,0.76c-0.25-0.3-0.1-1.36-0.06-0.23c0.01,0.26-0.03,0.53-0.01,0.79c0.04,0.67,0.36-1.41,0.02-0.23
			c-0.07,0.25-0.14,0.51-0.21,0.76c-0.23,0.84-0.05-0.21,0.16-0.34c-0.13,0.08-0.5,0.87-0.6,1.02c3.14-0.4,6.28-0.81,9.42-1.21
			c-5.78-5.87-13.06-10.16-20.99-12.41c1.2,2.94,2.39,5.88,3.59,8.81c0.7-0.96-0.83,0.98-0.11,0.14c0.26-0.3,0.51-0.6,0.77-0.9
			c0.45-0.5,0.92-0.99,1.41-1.46c1.02-0.99,2.11-1.9,3.22-2.8c0.87-0.7-1.09,0.82-0.12,0.1c0.28-0.21,0.55-0.42,0.83-0.62
			c0.56-0.41,1.12-0.82,1.68-1.22c1.17-0.84,2.35-1.66,3.52-2.51c5.08-3.68,10.2-7.79,12.88-13.64c0.69-1.51,1.06-2.97,0.6-4.62
			c-0.38-1.39-1.46-2.9-2.76-3.59c-2.67-1.41-6.77-0.87-8.21,2.15c-3.69,7.78-6.49,15.93-8.09,24.4c3.34-0.88,6.69-1.77,10.03-2.65
			c-0.65-0.73-1.28-1.46-1.9-2.21c-0.41-0.51-0.35-0.44,0.16,0.22c-0.17-0.22-0.33-0.45-0.5-0.68c-0.24-0.34-0.47-0.69-0.7-1.04
			c-0.22-0.35-0.43-0.7-0.62-1.07c-0.13-0.24-0.25-0.48-0.37-0.73c-0.27-0.6-0.23-0.49,0.14,0.32c0.01-0.26-0.29-0.88-0.35-1.13
			c-0.06-0.25-0.12-0.51-0.16-0.77c0.11,0.95,0.14,1.09,0.09,0.42c0.01-0.16,0.03-1.2,0.04-1.19c-0.14,0.93-0.14,1.08-0.01,0.43
			c0.04-0.19,0.1-0.37,0.16-0.56c0.45-1.41-0.56,0.81,0.07-0.17c0.21-0.32,0.41-0.67,0.6-1c0.37-0.52,0.29-0.43-0.24,0.27
			c0.17-0.2,0.34-0.4,0.51-0.59c0.26-0.29,0.54-0.57,0.83-0.83c0.32-0.3,0.66-0.57,0.99-0.86c0.35-0.28,0.19-0.16-0.49,0.38
			c0.2-0.14,0.4-0.29,0.6-0.42c5.93-4.06,13.21-5.65,18.14-11.2c1.63-1.84,2.22-4.23,1.24-6.55c-1.01-2.39-3.02-3.37-5.48-3.69
			c-9.53-1.24-19.05-2.48-28.58-3.72c0.53,3.93,1.06,7.86,1.6,11.79c0.67-0.17,1.59-0.53,2.28-0.48c-0.22,0.03-0.45,0.06-0.67,0.09
			c0.23-0.03,0.46-0.05,0.69-0.07c0.39-0.03,0.77-0.06,1.16-0.07c1.48-0.06,2.96,0.01,4.44,0.16c0.35,0.03,0.85,0.02,1.17,0.13
			c-0.4-0.15-0.95-0.14-0.19-0.01c0.78,0.13,1.56,0.26,2.34,0.41c1.55,0.3,3.09,0.64,4.63,0.99c3.05,0.69,6.64-0.93,7.38-4.19
			c0.35-1.54,0.27-3.26-0.6-4.62c-0.9-1.4-2.06-2.14-3.59-2.76c-6.73-2.73-14.05-2.73-21.2-3.18c-7.09-0.45-14.19-0.9-21.28-1.35
			c0,4,0,8,0,12c8.77-0.07,17.55-0.15,26.32-0.22c3-0.02,5.5-2.26,5.89-5.2c0.35-2.63-1.34-6.17-4.3-6.58
			c-23.44-3.27-47.12-2.74-70.38,1.76c-6.34,1.23-12.61,2.76-18.8,4.58c-2.44,0.72-4.52,3.14-4.4,5.79c0.13,2.86,1.83,4.76,4.4,5.79
			c-0.28-0.11-1.08-0.52-0.38-0.15c0.22,0.12,0.45,0.23,0.68,0.36s0.43,0.27,0.65,0.4c0.92,0.55-0.66-0.62-0.14-0.13
			c0.38,0.35,0.76,0.68,1.11,1.05c0.13,0.14,0.67,0.84,0.15,0.12c-0.58-0.81,0.15,0.24,0.2,0.32c2.26-2.94,4.52-5.88,6.78-8.81
			c-0.27-0.05-0.54-0.11-0.81-0.18c-0.2-0.05-1.36-0.35-0.44-0.13c0.75,0.18,0.03-0.03-0.2-0.17c-0.3-0.18-0.57-0.38-0.84-0.59
			c-1.54,3.66-3.08,7.31-4.62,10.97c-0.3-0.12-1.03-0.52-0.38-0.11c0.22,0.13,0.45,0.25,0.67,0.39c0.09,0.06,1.12,0.8,0.34,0.21
			c-0.71-0.54,0.01,0.03,0.14,0.15c0.84,0.74,1.6,1.57,2.32,2.42c0.34,0.4,0.68,0.81,1.01,1.22c0.17,0.21,0.34,0.42,0.51,0.62
			c0.87,1.06-0.51-0.73-0.05-0.07c0.32,0.45,0.65,0.89,0.94,1.36c0.14,0.23,0.28,0.47,0.41,0.71c0.07,0.12,0.13,0.24,0.19,0.36
			c0.2,0.41,0.13,0.24-0.2-0.51c-0.03,0.16,0.18,0.6,0.24,0.77c0.28,0.88-0.17-0.22-0.02-0.4c-0.07,0.09,0.01,0.73,0.01,0.87
			c0.01,0.87,0.14-0.05,0.06-0.3c0.14,0.45-0.29,1.45-0.38,1.94c-0.18,0.94-0.32,1.9-0.41,2.85c-0.31,3.13,0.76,6.8,3.22,8.86
			c2.42-3.14,4.85-6.28,7.27-9.42c-0.9-0.43,0.52,0.62,0.71,0.8c0.09,0.12,0.18,0.25,0.27,0.37c-0.3-0.54-0.23-0.35,0.2,0.57
			c-0.28-0.91,0.08,0.53,0.03,0.63c0.04-0.08,0.05-1.44-0.06-0.18c-0.13,1.35,0.01-0.31,0.16-0.29c0.04,0-0.69,1.37-0.13,0.33
			c0.35-0.65,0.7-1.3,1.05-1.96c1.51-2.88,2.47-6.17,2.28-9.45c-0.09-1.5-0.29-3.08-0.8-4.51c-0.33-0.94-0.73-1.91-1.22-2.78
			c-0.12-0.22-0.26-0.43-0.39-0.63c-0.22-0.31-0.45-0.61-0.69-0.91c-0.87-1.19-0.68-0.77,0.57,1.23c0.57,2.07-0.45,4.06-2.43,4.7
			c0.74-0.24,0.17,0.23-0.37-0.01c0.13,0.05,0.66-0.02,0.84-0.03c1.48-0.01,2.96,0.06,4.44,0.12c2.91,0.13,5.81,0.39,8.7,0.72
			c0.94,0.11-1.51-0.23-0.04,0c0.29,0.05,0.59,0.09,0.88,0.13c0.74,0.11,1.47,0.24,2.2,0.37c1.46,0.27,2.91,0.58,4.35,0.93
			c2.73,0.67,5.42,1.52,8.03,2.56c0.27,0.11,0.55,0.21,0.82,0.34c-1.44-0.66-0.06-0.01,0.2,0.11c0.51,0.23,1.02,0.46,1.51,0.72
			c0.26,0.14,0.51,0.28,0.75,0.44c0.68,0.43,0.23,0.57-0.23-0.2c0,0.01,0.41,0.46,0.48,0.48c-0.36-0.14-1.03-2.14-0.81-1.26
			c-0.06-0.32-0.11-0.65-0.17-0.97c0.75-2.05,0.91-2.7,0.47-1.93c-0.37,0.67,1.03-1.13,0.17-0.32c1.24-1.16,0.09-0.15-0.45,0.14
			c-0.29,0.16-0.59,0.3-0.89,0.45c-0.82,0.43,0.33-0.1,0.34-0.13c-0.05,0.22-1.87,0.63-2.07,0.68c-0.58,0.16-1.16,0.27-1.75,0.39
			c-1.33,0.26,1.1-0.08,0.22-0.02c-0.33,0.02-0.66,0.06-0.99,0.08c-0.53,0.03-1.06,0.04-1.59,0.02c-0.4-0.01-0.8-0.03-1.19-0.06
			c-0.13-0.01-0.26-0.02-0.4-0.04c-0.66-0.08-0.53-0.06,0.41,0.06c-0.01-0.05-3.12-0.77-3.46-0.89c0,0-0.71-0.21-0.74-0.28
			c0.23,0.1,0.47,0.19,0.7,0.29c-0.24-0.11-0.48-0.22-0.72-0.34c-0.24-0.12-0.46-0.26-0.7-0.38c-0.46-0.29-0.46-0.26,0.01,0.07
			c0.38,0.25,0.68,0.58,0.89,1c-0.48-0.81,0.17,0.49,0.2,0.57c-0.38-1.15,0.05,1.52,0.03,0.29c-0.01-0.46,0.25-0.92-0.09,0.6
			c0.21-0.95-0.13,0.45-0.24,0.47c-0.23,0.03,1.11-1.12,0.13-0.33c-0.77,0.62,0.14-0.11,0.27-0.23c-0.04,0.04,0.56-0.5,0.56-0.5
			c-0.72,0.54-0.83,0.63-0.31,0.25c0.1-0.07,0.21-0.14,0.31-0.21c1.08-0.73,2.22-1.36,3.39-1.93c0.22-0.11,0.7-0.45,0.93-0.43
			c-0.08,0-1.34,0.53-0.3,0.13c0.71-0.27,1.41-0.53,2.13-0.77c1.25-0.41,2.51-0.74,3.79-1.03c0.54-0.12,1.09-0.23,1.63-0.33
			c0.41-0.08,0.82-0.15,1.24-0.21c0.46-0.07,1.56-0.51,0.07-0.02c1.13-0.36,2.6-0.29,3.78-0.37c1.41-0.1,2.82-0.17,4.23-0.21
			c1.27-0.04,2.53-0.05,3.8-0.06c0.35,0,0.7,0,1.05,0c0.7,0,1.15,0.3-0.37-0.14c-1.33-0.39-1.06-0.53-0.63-0.25
			c-0.8-0.67-0.98-0.78-0.55-0.35c-0.19-0.24-0.39-0.48-0.58-0.72c0.62,0.92-0.36-1.15-0.17-0.43c0.13,0.47,0.1,0.19-0.06-0.82
			c0.02,0.21,0.02,0.42,0.01,0.63c-0.06-0.13,0.35-1.62,0.02-0.63c0.38-0.81,0.46-1.02,0.25-0.61c-0.08,0.16-0.17,0.32-0.27,0.46
			c0.15-0.72,0.77-0.83,0.27-0.36c-0.31,0.3-0.62,0.59-0.93,0.89c-0.6,0.55,1.25-0.79,0.17-0.16c-0.32,0.19-0.63,0.4-0.95,0.59
			c-0.55,0.32-1.12,0.59-1.69,0.88c-1.15,0.59,1.01-0.37,0.21-0.08c-0.36,0.13-0.71,0.27-1.07,0.39c-0.66,0.22-1.33,0.41-2.01,0.58
			c-0.51,0.12-1.45,0.09-1.87,0.36c0.28-0.04,0.56-0.07,0.84-0.11c-0.25,0.03-0.51,0.06-0.76,0.08c-0.38,0.03-0.76,0.06-1.14,0.07
			c-0.64,0.02-1.27,0.02-1.91,0c-0.32-0.01-0.64-0.03-0.95-0.06c-0.21-0.02-1.6-0.15-0.53-0.04c1.08,0.11-0.17-0.04-0.33-0.07
			c-0.37-0.07-0.75-0.15-1.12-0.24c-0.62-0.15-1.23-0.32-1.83-0.51c-0.36-0.12-0.72-0.26-1.08-0.38c-1.1-0.38,1.16,0.58,0.03,0.02
			c-1.26-0.63-2.47-1.29-3.62-2.11c0.72,2.74,1.44,5.47,2.15,8.21c0.26-0.59,0.58-1.11,0.89-1.67c0.52-0.94-0.14,0.33-0.27,0.3
			c0.05,0.01,0.55-0.63,0.62-0.71c0.38-0.41,0.89-0.74,1.25-1.16c-0.74,0.86-0.72,0.51-0.3,0.25c0.38-0.23,0.75-0.49,1.14-0.71
			c0.28-0.16,0.57-0.29,0.84-0.44c0.62-0.34,0.24,0.19-0.33,0.12c0.5,0.07,1.64-0.57,2.12-0.7c0.58-0.16,1.16-0.29,1.75-0.4
			c0.08-0.02,1.53-0.32,0.53-0.11c-0.93,0.19,0.57-0.06,0.77-0.08c3.01-0.28,6.05-0.27,9.06-0.07c0.58,0.04,1.16,0.1,1.74,0.15
			c1.26,0.1-1.47-0.31-0.23-0.02c0.22,0.05,0.45,0.09,0.68,0.14c0.27,0.07,1.96,0.54,0.89,0.23c-1.18-0.34,0.15,0.16,0.16,0.16
			c-0.73-0.6-0.92-0.75-0.57-0.45c0.12,0.1,0.24,0.22,0.34,0.34c-0.6-0.18-0.7-1.08-0.37-0.41c-0.1-0.25-0.21-0.51-0.31-0.76
			c0.12,0.49,0.13,0.46,0.04-0.11c-0.04-1.2-0.12,0.16-0.07,0.25c0,0,0.15-1.63,0.01-0.54c-0.15,1.15,0.5-0.84,0.11-0.23
			c-0.17,0.26-0.33,0.56-0.49,0.83c-0.3,0.53-0.5,0.19,0.23-0.27c-0.26,0.16-0.58,0.66-0.8,0.88c-0.23,0.23-0.49,0.43-0.72,0.66
			c-0.6,0.59,1.24-0.85,0.1-0.07c-0.46,0.32-0.92,0.64-1.39,0.95c-1.08,0.69-2.45,1.67-3.71,1.96c1.35-0.32,0.48-0.21,0.07-0.06
			c-0.33,0.12-0.66,0.24-0.99,0.35c-0.6,0.2-1.2,0.37-1.81,0.53c-0.61,0.15-1.23,0.29-1.85,0.4c-0.1,0.02-0.69,0.18-0.83,0.14
			c0.9-0.12,1.02-0.13,0.35-0.06c-0.21,0.02-0.42,0.04-0.63,0.06c-1.25,0.1-2.51,0.11-3.76,0.02c-0.34-0.02-0.68-0.06-1.02-0.09
			c-1.19-0.1,0.37,0.06,0.37,0.06c-0.16,0.16-2-0.38-2.22-0.44c-0.73-0.18-1.46-0.38-2.17-0.62c-0.26-0.09-0.52-0.18-0.78-0.27
			c-0.26-0.09-0.51-0.19-0.77-0.29c0.22,0.1,0.45,0.19,0.67,0.29c-0.69-0.1-1.62-0.76-2.21-1.08c-0.6-0.33-1.19-0.68-1.76-1.05
			c-0.23-0.15-0.46-0.3-0.68-0.46c-0.23-0.16-0.45-0.32-0.67-0.48c0.61,0.48,0.75,0.59,0.4,0.31c-0.26-0.22-0.53-0.43-0.79-0.66
			c-0.46-0.4-0.9-1.25-0.07,0.16c0.81,1.39,0.55,3.14-0.55,4.28c-0.61,0.35-1.21,0.7-1.82,1.06c-1.02,0.07-1.28,0.1-0.8,0.1
			c0.48,0.01,0.22-0.03-0.8-0.09c-0.6-0.15-1.12-0.43-1.59-0.84c2.18,2.26,6.32,2.36,8.49,0c2.23-2.43,2.33-6.07,0-8.49
			c-4.49-4.66-12.78-2.54-14.21,3.85c-0.71,3.18,0.43,6.34,2.86,8.45c1.57,1.36,3.25,2.64,5.04,3.7c7.09,4.23,15.49,5.52,23.55,3.93
			c3.76-0.74,7.51-2.26,10.74-4.32c3.74-2.38,7.34-5.65,8.52-10.1c1.38-5.22-1.3-10.38-6.21-12.46c-3.71-1.56-7.97-1.68-11.95-1.67
			c-9.04,0.01-20.13,2.24-24.2,11.47c-1.4,3.18-0.75,6.15,2.15,8.21c5.58,3.96,12.91,5.66,19.68,4.83
			c7.63-0.94,17.9-4.94,18.62-13.85c0.42-5.14-3.52-9.91-8.68-10.21c-3.3-0.2-6.71,0-10.01,0.24c-7.4,0.54-14.85,1.97-21.34,5.75
			c-4.04,2.36-7.42,5.63-7.89,10.51c-0.19,2.02,0.31,4.12,1.36,5.86c1.49,2.49,4.06,3.67,6.63,4.72c6.98,2.86,15.32,2.25,21.9-1.4
			c1.82-1.01,3.43-2.36,4.49-4.17c1.55-2.65,1.36-6.05-0.22-8.62c-2.26-3.68-6.66-5.25-10.47-6.74c-7.01-2.73-14.52-4-21.99-4.66
			c-2.08-0.18-4.17-0.3-6.26-0.37c-2.24-0.08-4.57-0.23-6.76,0.39c-3.32,0.95-5.66,3.71-6.11,7.1c-0.23,1.73,0.11,3.41,1.04,4.91
			c0.31,0.4,0.63,0.81,0.94,1.21c-0.54-0.73-0.64-0.83-0.28-0.3c0.13,0.21,0.25,0.43,0.37,0.65c0.28,0.58,0.22,0.44-0.16-0.41
			c-0.05,0.07,0.29,0.95,0.32,1.07c0.06,0.24,0.11,0.49,0.15,0.73c-0.12-0.98-0.15-1.14-0.09-0.48c0,0.25,0.02,0.5,0.02,0.75
			c0,0.25-0.01,0.5-0.03,0.76c-0.06,0.66-0.04,0.5,0.08-0.46c-0.13,0.11-0.19,0.93-0.24,1.11c-0.07,0.24-0.14,0.49-0.22,0.73
			c-0.22,0.61-0.16,0.48,0.19-0.37c-0.16,0-1.16,2.22-1.3,2.48c-1.1,2.14-1.96,4.43-1.74,6.88c0.27,3.08,1.76,6.25,4.69,7.65
			c2.73,1.3,5.82,0.94,7.74-1.55c1.69-2.19,1.83-5.95-0.47-7.88c-0.25-0.21-0.67-0.92-0.23-0.14c0.22,0.2,0.37,0.44,0.43,0.74
			c0.17,0.46,0.21,0.54,0.11,0.24c-0.12-0.65,0.05-0.78-0.03,0.39c0.02-0.23-0.03-0.48-0.03-0.72c0-0.22,0.07-0.5,0.03-0.71
			c-0.13,0.88-0.16,1.08-0.07,0.59c0.02-0.14,0.05-0.29,0.08-0.43c0.12-0.65,0.27-1.29,0.38-1.94c0.63-3.78,0.22-7.24-1.78-10.57
			c-1.39-2.32-3.24-4.48-5.05-6.48c-2.2-2.43-4.73-4.14-7.74-5.39c-1.28-0.53-3.5-0.12-4.62,0.6c-1.11,0.72-1.94,1.64-2.45,2.87
			c-1.26,2.98,0.05,5.64,2.45,7.49c1.48,1.14,3.33,1.93,5.16,2.29c2.42,0.47,4.75-0.13,6.31-2.15c1.4-1.81,1.8-4.67,0.47-6.66
			c-2.38-3.57-5.48-5.93-9.44-7.5c0,3.86,0,7.71,0,11.57c5.36-1.57,10.78-2.94,16.25-4.07c2.7-0.56,5.41-1.06,8.12-1.51
			c1.4-0.23,2.8-0.45,4.2-0.65c0.31-0.04,0.62-0.09,0.93-0.13c1.14-0.16-0.01-0.02-0.19,0.02c0.75-0.18,1.58-0.2,2.34-0.3
			c11.09-1.33,22.3-1.76,33.46-1.27c3.14,0.14,6.29,0.35,9.42,0.63c1.49,0.14,2.98,0.29,4.46,0.45c0.78,0.09,1.56,0.18,2.34,0.28
			c0.39,0.05,0.78,0.09,1.17,0.15c-1.03-0.17-0.37-0.05,0.28,0.04c0.53-3.93,1.06-7.86,1.6-11.79c-8.77,0.07-17.55,0.15-26.32,0.22
			c-3.14,0.03-6.15,2.74-6,6c0.15,3.42,2.64,5.79,6,6c6.93,0.44,13.86,0.88,20.79,1.32c3.38,0.21,6.75,0.4,10.13,0.65
			c0.38,0.03,0.76,0.07,1.14,0.1c1.54,0.14-1.3-0.25,0.22,0.03c0.75,0.14,1.5,0.28,2.24,0.45c1.63,0.39,3.22,0.92,4.78,1.55
			c1.06-3.86,2.13-7.71,3.19-11.57c-7.31-1.65-14.81-3.07-22.22-1.15c-2.9,0.75-4.69,3.7-4.3,6.58c0.17,1.26,0.69,2.56,1.65,3.45
			c1.25,1.15,2.57,1.54,4.24,1.76c9.53,1.24,19.05,2.48,28.58,3.72c-1.41-3.41-2.83-6.83-4.24-10.24c-0.32,0.37-0.66,0.72-1.01,1.06
			c-0.25,0.24-0.96,0.65-1.09,0.96c0.74-0.56,0.86-0.65,0.35-0.28c-0.2,0.14-0.39,0.28-0.6,0.42c-0.4,0.27-0.81,0.53-1.23,0.78
			c-1.59,0.95-3.26,1.75-4.93,2.54c-3.73,1.77-7.34,3.59-10.45,6.36c-4.23,3.77-6.38,9.15-5.48,14.76c0.8,4.99,4.19,9.12,7.45,12.76
			c2.88,3.22,9.2,1.72,10.03-2.65c0.74-3.89,1.7-7.74,2.92-11.51c0.61-1.88,1.28-3.75,2.01-5.59c0.17-0.43,0.34-0.85,0.51-1.27
			c0.59-1.44-0.53,1.17,0.11-0.25c0.44-0.97,0.87-1.95,1.33-2.91c-3.45-2.02-6.91-4.04-10.36-6.06c-0.59,1.28-1.36,2.39-2.1,3.58
			c-0.27,0.37-0.13,0.18,0.44-0.56c-0.14,0.17-0.28,0.34-0.42,0.51c-0.21,0.25-0.43,0.5-0.65,0.74c-0.45,0.49-0.91,0.96-1.39,1.42
			c-0.98,0.93-2.03,1.76-3.06,2.63c1.48-1.24-0.29,0.21-0.69,0.51c-0.6,0.44-1.21,0.88-1.82,1.31c-5.31,3.78-10.48,7.47-14.37,12.78
			c-2.35,3.2,0.18,7.85,3.59,8.81c0.86,0.24,1.72,0.51,2.57,0.81c0.39,0.14,0.78,0.28,1.17,0.43c0.19,0.07,1.48,0.68,0.63,0.25
			c-0.88-0.45,0.64,0.3,0.8,0.38c0.37,0.18,0.75,0.36,1.11,0.55c0.74,0.38,1.46,0.78,2.18,1.2c0.71,0.42,1.41,0.87,2.1,1.33
			c0.34,0.23,0.68,0.47,1.02,0.71c0.22,0.16,0.45,0.33,0.67,0.49c-0.19-0.14-0.37-0.29-0.56-0.43c1.48,0.85,2.82,2.39,4.01,3.6
			c2.83,2.88,7.33,1.96,9.42-1.21c1.66-2.52,2.53-5.83,2.21-8.84c-0.1-0.98-0.21-1.99-0.49-2.94c-0.08-0.25-0.17-0.5-0.26-0.74
			c-0.2-0.48-0.4-0.96-0.6-1.43c0.1,0.23,0.2,0.47,0.29,0.7c-0.26-0.84,0.06,0.23-0.03,0.47c0.01-0.03,0.07-1.48-0.05-0.35
			c-0.1,0.93,0.04,0.05,0.1-0.16c0.04-0.13,0.08-0.26,0.13-0.38c0.15-0.42,0.08-0.26-0.21,0.48c0.27-0.14,0.64-1.18,0.82-1.47
			c0.34-0.54,0.7-1.05,1.08-1.56c0.79-1.08,1.59-2.16,2.41-3.21c-0.5,0.63-0.31,0.4,0.08-0.09c0.19-0.25,0.39-0.5,0.59-0.74
			c0.44-0.56,0.89-1.11,1.33-1.66c0.9-1.1,1.81-2.19,2.73-3.26c-3.14-2.42-6.28-4.85-9.42-7.27c-0.21,0.35-0.45,0.69-0.67,1.03
			c-0.64,1,0.81-0.91-0.21,0.22c-0.27,0.3-0.56,0.6-0.86,0.88c-0.27,0.25-1.51,1.23-0.2,0.24c2.74,2.74,5.47,5.47,8.21,8.21
			c2.89-3.75,4.95-8.35,5.78-13.01c0.25-1.42,0.43-2.86,0.55-4.3c0.14-1.67-0.27,0.92,0-0.12c0.19-0.61,0.11-0.44-0.23,0.52
			c-0.53,0.91-1.28,1.52-2.23,1.82c0.64-0.13,0.45-0.11-0.55,0.06c0.28-0.02,0.57-0.03,0.85-0.05c0.66-0.04,1.32-0.07,1.99-0.11
			c1.32-0.07,2.65-0.14,3.97-0.21c3.13-0.17,6.15-2.64,6-6C192.61,256.53,190.1,253.46,186.75,253.64L186.75,253.64z"/>
	</g>
</g>
<g>
	<g>
		<path class="st0" d="M136.4,289.38c-2.77,2.74-3.87,6.79-2.93,10.57c0.47,1.92,1.58,3.42,2.78,4.93c0.16,0.2,0.32,0.41,0.49,0.6
			c0.28,0.35,0.17,0.2-0.35-0.45c0.07,0.11,0.15,0.22,0.22,0.32c0.21,0.74,0.01-0.07-0.08-0.38c0.13,0.51,0.15,0.49,0.05-0.05
			c-0.1-0.42-0.08-0.85,0.04-1.27c3.34-0.88,6.69-1.77,10.03-2.65c-3.44-2.93-7.9-3.99-12.16-2.19c-3.47,1.46-5.93,4.62-8.07,7.61
			c-1,1.39-1.77,3-2.24,4.64c-0.18,0.64-0.28,1.3-0.4,1.95c-0.08,0.44-0.15,0.87-0.27,1.3c-0.03,0.11-0.07,0.22-0.1,0.34
			c-0.21,0.6-0.14,0.45,0.22-0.45c-0.15,0.09-0.32,0.61-0.43,0.78c-0.44,0.7-0.56,0.2,0.2-0.23c0.03-0.02-0.49,0.45-0.49,0.49
			c0.22-0.17,0.45-0.34,0.67-0.51c-0.19,0.13-0.38,0.25-0.58,0.36c0.02-0.1,1.46-0.48,0.48-0.22c-1.17,0.32,1.21-0.02,0.39-0.04
			c-0.8-0.01,1.54,0.44,0.38,0.07c-1.14-0.36,1.11,0.63,0.14,0.07c-1.06-0.61,0.93,0.99,0.12,0.07c0.13,0.15,0.67,1.2,0.31,0.37
			c0.57,1.33,0.17,0.46,0.07,0.07c-0.26-0.98,0.27-0.44-0.02,0.14c0.2-0.4-0.05-1.71-0.05-2.15c0-0.84-0.01-1.67-0.05-2.51
			c-0.17-3.53-0.68-7.09-1.56-10.51c-0.84-3.28-1.87-7.35-4.37-9.75c-1.56-1.5-3.62-2.21-5.57-3.02c-1.43-0.59-2.88-1.15-4.34-1.67
			c-6.73-2.41-13.69-4.07-20.66-5.57c-3.06-0.66-6.63,0.91-7.38,4.19c-0.69,3.02,0.91,6.67,4.19,7.38
			c6.07,1.31,12.12,2.74,18.02,4.67c1.4,0.46,2.79,0.94,4.17,1.46c0.65,0.25,1.3,0.5,1.95,0.76c0.25,0.1,1.72,0.59,0.28,0.11
			c0.39,0.13,0.73,0.37,1.12,0.5c0.82,0.28-0.05-0.13-0.27-0.33c0.94,0.86-0.61-0.89-0.18-0.21c0.45,0.71-0.6-1.61-0.07-0.18
			c0.11,0.29,0.22,0.58,0.32,0.87c0.57,1.6,1.06,3.23,1.44,4.88c0.16,0.68,0.3,1.36,0.43,2.04c0.07,0.38,0.13,0.76,0.2,1.14
			c0.2,1.11,0.02-0.04-0.02-0.22c0.31,1.56,0.32,3.26,0.34,4.85c0.06,4.01,0.24,7.71,2.98,10.91c2.57,3.01,7.1,4.26,10.87,3.18
			c3.91-1.12,6.66-4.25,8.08-7.95c0.55-1.44,0.7-2.98,1.07-4.47c0.32-1.3-0.48,0.74-0.04,0.07c0.27-0.41,0.48-0.86,0.76-1.27
			c0.11-0.16,0.48-0.55,0.5-0.69c-0.5,0.65-0.55,0.72-0.14,0.21c0.09-0.11,0.18-0.22,0.27-0.33c0.52-0.63,1.04-1.26,1.62-1.84
			c-0.03,0.03,0.54-0.57,0.59-0.55c-0.7,0.51-0.79,0.59-0.25,0.23c0.12-0.07,0.23-0.13,0.35-0.2c-0.24,0.1-0.48,0.2-0.72,0.3
			c0.24-0.08,0.48-0.14,0.72-0.19c-0.28,0.04-0.57,0.09-0.85,0.13c0.66,0.02,0.5-0.03-0.47-0.14c-0.06-0.02,0.73,0.18,0.73,0.18
			c-0.84-0.4-0.98-0.45-0.4-0.16c0.53,0.34,0.43,0.25-0.31-0.28c1.66,1.42,3.64,2.15,5.84,1.54c1.94-0.54,3.74-2.18,4.19-4.19
			c0.9-4-0.7-7.17-3.22-10.15c-0.49-0.58,0.59,0.96,0.24,0.29c-0.11-0.21-0.26-0.46-0.4-0.66c-0.43-0.64,0.45,1.11,0.22,0.42
			c-0.2-0.6-0.03,1.16,0.08,0.54c0.03-0.19,0.05-1.11-0.03-0.09c-0.09,1.09,0.33-0.44-0.13,0.49c-0.43,0.87,0.01,0.09,0.08-0.08
			c0.23-0.56-0.94,1.04-0.15,0.26c2.23-2.21,2.38-6.3,0-8.49C142.48,287.17,138.79,287.02,136.4,289.38L136.4,289.38z"/>
	</g>
</g>
<g>
	<g>
		<path class="st0" d="M93.11,286.05c1.74,0.03,3.47,0.13,5.2,0.31c0.24,0.03,1.87,0.2,0.29,0.01c0.39,0.04,0.78,0.11,1.17,0.18
			c0.86,0.14,1.71,0.29,2.56,0.47c1.7,0.35,3.4,0.76,5.05,1.29c0.22,0.07,1.19,0.41,0.23,0.05c-0.95-0.36-0.02,0.05,0.2,0.16
			c1.02,0.49-0.97-0.87-0.21-0.12c-0.2-0.24-0.39-0.48-0.59-0.72c-0.39-2.3-0.59-2.92-0.58-1.86c0.99-1.73,1.98-3.45,2.97-5.18
			c-1.18,0.68,1.29-0.29,0,0.05c0.06-0.02-0.75,0.19-0.75,0.19c0.27-0.03,0.55-0.07,0.82-0.1c-0.26,0.02-0.52,0.04-0.79,0.04
			c-0.27,0-0.53-0.02-0.8-0.03c-1.38-0.06,1.33,0.36-0.02-0.02c-0.27-0.07-0.54-0.12-0.81-0.19c-0.81-0.21-1.61-0.47-2.4-0.76
			c-1.39-0.51-2.76-1.09-4.13-1.65c-0.29-0.12-0.57-0.24-0.86-0.35c-1.46-0.6,1.17,0.51-0.28-0.12c-0.71-0.31-1.42-0.61-2.13-0.93
			c-1.41-0.64-2.81-1.31-4.17-2.02c-0.68-0.36-1.36-0.73-2.03-1.12c-0.1-0.06-0.88-0.63-1-0.61c0.22,0.17,0.43,0.34,0.65,0.51
			c-0.45-0.45-0.36-0.3,0.26,0.45c0.43,0.75,0.55,2.05,0.37,2.9c-0.09,0.23-0.18,0.46-0.27,0.7c-0.57,0.68-0.64,0.78-0.23,0.32
			c0.81-0.71-0.34,0.26-0.37,0.25c0.1-0.06,0.21-0.13,0.31-0.19c0.57-0.29,0.42-0.25-0.44,0.14c0.02,0.02,0.74-0.22,0.71-0.21
			c1.19-0.36-1.37-0.09-0.13,0.02c0.2,0.02,0.57,0.05,0.74,0.03c-0.97-0.15-1.12-0.15-0.47-0.02c0.19,0.05,0.37,0.1,0.56,0.17
			c0.78,0.18-1.28-0.72-0.19-0.06c0.22,0.13,0.45,0.28,0.67,0.4c1.15,0.62-0.91-0.9,0.03,0.02c0.19,0.18,0.38,0.36,0.56,0.55
			c0.26,0.27,1,1.32,0.05,0c0.27,0.37,0.25,0.84-0.11-0.38c-0.69-2.34,1.37-5.19,4.01-5.17c0.26,0.03,0.53,0.06,0.79,0.09
			c-0.24-0.05-0.48-0.11-0.71-0.18c-0.14-0.04-1.33-0.38-0.32-0.08c0.94,0.28-0.08-0.07-0.27-0.19c0.04,0.02-0.61-0.4-0.62-0.39
			c0.21,0.17,0.42,0.33,0.62,0.5c-0.19-0.15-0.38-0.31-0.55-0.48c-0.18-0.17-0.34-0.36-0.51-0.53c-0.91-0.86,0.65,1.14,0.04,0.05
			c-0.23-0.42-0.25-0.76,0.13,0.42c0.4,1.62,0.02,3.04-1.13,4.26c-0.85,0.59-1.08,0.76-0.68,0.51c0.63-0.35-1.56,0.41-0.47,0.19
			c0.12-0.02,0.49-0.08,0.61-0.15c-0.32,0.04-0.65,0.08-0.97,0.13c0.2-0.02,0.4-0.03,0.6-0.03c0.3-0.01,0.61,0,0.92,0
			c0.76,0.01,1.53,0.05,2.29,0.11c0.46,0.04,0.91,0.09,1.37,0.13c1.28,0.12-1.16-0.22,0.22,0.03c1.51,0.28,3,0.57,4.48,0.99
			c0.74,0.21,1.46,0.44,2.19,0.69c0.29,0.1,0.58,0.21,0.86,0.31c0.29,0.11,0.57,0.22,0.85,0.33c-0.66-0.28-0.78-0.34-0.38-0.16
			c0.7,0.33,1.41,0.64,2.09,1.01c0.36,0.2,0.72,0.4,1.06,0.62c0.11,0.07,0.23,0.15,0.34,0.22c0.53,0.38,0.45,0.31-0.24-0.21
			c0.16-0.01,0.62,0.56,0.74,0.69c1.02,1.05-0.31-0.79,0.19,0.22c0.12,0.24,0.27,0.48,0.4,0.71c0.6,1.03-0.39-1.18,0.11,0.26
			c0.25,0.72,0.45,1.45,0.63,2.18c0.11,0.44,0.73,2.06,0.54,2.5c-0.03-0.25-0.06-0.5-0.09-0.74c0.03,0.21,0.05,0.43,0.06,0.64
			c0.04,0.5,0.01,0.99,0.03,1.48c0.04,1-0.01-0.43,0.08-0.35c0.16,0.14-0.4,1.42-0.47,1.61c1.93-1.47,3.86-2.94,5.79-4.4
			c2,0.05,3.7,1.22,4.28,2.99c-0.31-0.96,0.08,1.74,0.01,0.04c-0.03-0.83-0.16-2.06,0.11-2.85c-0.03,0.24-0.06,0.48-0.09,0.72
			c0.05-0.29,0.1-0.58,0.17-0.86c0.09-0.43,0.2-0.86,0.33-1.28c0.13-0.42,0.27-0.83,0.42-1.25c0.48-1.36-0.61,1.08,0.1-0.18
			c0.03-0.05,0.6-1.06,0.59-1.08c-0.29,0.49-0.69,0.88-1.19,1.14c-1.82-0.2-3.64-0.4-5.45-0.6c0.17,0.18,0.34,0.36,0.5,0.55
			c-0.15-0.2-0.31-0.41-0.46-0.61c0.04-0.02,0.68,1.01,0.75,1.11c0.2,0.33,0.38,0.66,0.55,1.01c0.67,1.35-0.28-0.99,0.08,0.15
			c0.23,0.74,0.48,1.47,0.66,2.22c0.09,0.38,0.16,0.76,0.23,1.15c0.26,1.35-0.11-1.42,0-0.04c0.06,0.79,0.12,1.57,0.14,2.36
			c0.03,1.83,0.02,3.85-0.37,5.64c0.03-0.22,0.06-0.44,0.09-0.66c-0.04,0.31-0.09,0.63-0.13,0.94c-0.07,0.47-0.14,0.94-0.21,1.41
			c-0.14,0.94-0.29,1.87-0.42,2.81c-0.34,2.41-0.67,4.81-0.79,7.24c-0.15,3.14,2.86,6.14,6,6c3.44-0.15,5.76-2.64,6-6
			c0.32-4.61-0.33-9.38-1.91-13.72c-1.03-2.83-3.48-4.71-6.58-4.3c-3.12,0.42-4.91,2.88-5.2,5.89c-0.02,0.22-0.04,0.45-0.07,0.67
			c-0.05,0.46-0.03,0.3,0.06-0.48c-0.07,0.03-0.14,0.79-0.16,0.89c-0.16,0.81-0.36,1.62-0.6,2.41c-0.22,0.72-0.48,1.42-0.74,2.13
			c-0.25,0.69,0.5-0.99-0.02,0.02c-0.21,0.4-0.4,0.81-0.61,1.21c3.73,1.01,7.45,2.02,11.18,3.03c0.08-6.07-3.23-11.85-8.46-14.91
			c-2.59-1.52-5.94-0.79-7.74,1.55c-1.84,2.39-1.61,5.69,0.47,7.88c1.53,1.62,3.14,3.15,4.85,4.58c2.01,1.69,4.26,3.9,6.83,4.69
			c6.68,2.07,10.51-5.1,11.56-10.5c0.37-1.89,0.64-3.79,1.25-5.62c0.13-0.38,0.27-0.76,0.42-1.14c0.24-0.61,0.2-0.5-0.14,0.31
			c0.11-0.25,0.22-0.49,0.34-0.74c0.4-0.86,0.84-1.71,1.29-2.55c2.04-3.81,4.24-7.57,5.44-11.75c-3.93-0.53-7.86-1.06-11.79-1.6
			c-0.32,6.12-0.36,12.25-0.1,18.37c0.13,3.13,2.67,6.15,6,6c3.38-0.15,5.84-2.64,6-6c0.26-5.33,0.52-10.65,0.78-15.98
			c0.15-2.98-2.4-5.52-5.2-5.89c-2.64-0.36-6.16,1.34-6.58,4.3c-0.5,3.49-1.37,6.92-2.63,10.22c-0.06,0.17-0.62,1.55-0.26,0.68
			c0.35-0.87-0.23,0.5-0.3,0.67c-0.36,0.78-0.74,1.56-1.15,2.32c-0.84,1.59-1.78,3.13-2.79,4.61c3.66,1.54,7.31,3.08,10.97,4.62
			c1.06-3.34,2.25-6.64,3.59-9.88c0.25-0.62,0.32-0.81,0.03-0.08c0.17-0.43,0.37-0.86,0.56-1.29c0.38-0.86,0.76-1.71,1.16-2.55
			c0.72-1.55,1.48-3.09,2.27-4.61c0.39-0.76,0.8-1.52,1.2-2.27c0.32-0.59,0.9-1.28,1.12-1.91c-0.54,0.65-0.65,0.82-0.35,0.49
			c0.32-0.32,0.14-0.21-0.53,0.34c0.82-0.52-0.6,0.18-0.95,0.22c-0.48,0.11-0.97,0.08-1.45-0.1c0.45,0.13,0.41,0.09-0.11-0.11
			c-0.51-0.24-0.56-0.25-0.13-0.03c-0.22-0.18-0.45-0.37-0.67-0.55c0.13,0.11,0.26,0.22,0.37,0.35c0.31,0.33,0.18,0.15-0.39-0.55
			c0.13,0.37,0.55,1.48,0.01-0.2c0.33,1.01,0.05-1.23,0.01-0.38c-0.05,1.04,0.3,0.36,0.13-0.09c0.11,0.28-0.24,0.95-0.32,1.26
			c-0.33,1.34,0.58-1.04-0.06,0.2c-0.41,0.79-0.83,1.57-1.28,2.34c3.66,1.54,7.31,3.08,10.97,4.62c0.15-0.73,0.33-1.44,0.57-2.15
			c0.07-0.22,0.16-0.79,0.35-0.95c-0.32,0.75-0.39,0.92-0.2,0.51c0.09-0.18,0.18-0.36,0.27-0.54c0.31-0.6,0.68-1.16,1.04-1.73
			c0.71-1.15-0.86,0.94,0.04-0.07c0.27-0.3,0.53-0.61,0.81-0.9c-2.83-2.83-5.66-5.66-8.49-8.49c-2.24,2.74-4.66,5.32-7.25,7.73
			c3.14,2.42,6.28,4.85,9.42,7.27c0.79-1.36,1.63-2.69,2.53-3.98c0.45-0.65,0.92-1.28,1.39-1.91c0.44-0.6-0.73,0.9-0.02,0.03
			c0.27-0.33,0.54-0.67,0.82-0.99c2.02-2.41,4.25-4.64,6.63-6.7c1.8-1.56,2.11-4.5,1.24-6.55c-0.95-2.25-3.05-3.58-5.48-3.69
			c-2.22-0.1-4.43-0.2-6.65-0.3c-1.07-0.05-2.14-0.1-3.2-0.14c-0.49-0.02-0.99-0.04-1.48-0.07c-0.33-0.01-0.66-0.03-0.99-0.04
			c1.97,0.08,3.39,1.24,4.27,3.46c0,1.06,0,2.13,0,3.19c-0.01,0.06-1.03,2.1-1.79,2.28c0.18-0.04,0.53-0.34,0.72-0.46
			c0.49-0.29,0.99-0.57,1.5-0.82c0.19-0.09,0.55-0.32,0.77-0.36c-1.17,0.24-0.64,0.26-0.24,0.13c0.68-0.23,1.35-0.46,2.04-0.63
			c0.32-0.08,1.39-0.49,1.67-0.35c-0.32-0.16-1.17,0.11-0.32,0.05c0.28-0.02,0.57-0.05,0.85-0.07c0.57-0.03,1.14-0.04,1.71-0.02
			c0.06,0,0.67,0.09,0.76,0.05c-0.9-0.15-1.12-0.16-0.66-0.03c0.46,0.14,0.25,0.05-0.65-0.27c-0.03-0.02-1.18-1.03-0.57-0.4
			c-0.02-0.02-0.91-1.3-0.47-0.53c-0.01-0.01-0.61-1.51-0.31-0.64c0.21,0.61-0.38,0.29-0.08-0.73c-0.03,0.11,0.08,0.53-0.01,0.59
			c-0.04,0.03,0.32-1.68,0.07-0.71c-0.16,0.64-0.29,0.02,0.3-0.6c-0.14,0.14-0.63,1-0.03,0.16c0.75-1.05-0.24,0.25-0.26,0.16
			c-0.03-0.18,1.27-0.73,0.33-0.31c-0.16,0.07-0.54,0.24-0.65,0.34c0.14-0.13,1.34-0.42,0.4-0.2c-0.43,0.1-1.07,0.17-1.46,0.35
			c0.12-0.06,1.51-0.12,0.48-0.07c-0.31,0.01-0.62,0.04-0.93,0.05c-0.5,0.01-0.99,0.01-1.49-0.03c-1.5-0.1,1.22,0.26-0.26-0.01
			c-0.49-0.09-0.97-0.2-1.45-0.34c-0.24-0.07-0.47-0.15-0.71-0.23c-1.14-0.4,0.17-0.09,0.24,0.12c-0.05-0.15-1.24-0.68-1.43-0.8
			c-1.19-0.78,0.83,0.79-0.21-0.19c-0.18-0.17-0.35-0.34-0.51-0.52c-0.04-0.05-0.08-0.09-0.12-0.14c-0.32-0.38-0.31-0.37,0.01,0.03
			c0.08,0.1,0.16,0.2,0.25,0.31c-0.11-0.16-0.21-0.32-0.3-0.49c-0.4-0.55,0.34,1.22,0.12,0.2c0.14,0.62,0.14,1.17-0.03,1.78
			c0.25-0.92-0.25,0.46-0.28,0.52c0.46-0.81-0.3,0.35-0.39,0.41c0.12-0.08,0.35-0.36,0.47-0.48c0.64-0.69-0.24,0.27-0.39,0.3
			c0.14-0.02,0.46-0.29,0.61-0.37c0.04-0.02,0.59-0.25,0.64-0.33c-0.84,0.34-1.04,0.42-0.62,0.26c0.16-0.06,0.32-0.12,0.49-0.18
			c1.13-0.39,2.28-0.64,3.45-0.87c1.2-0.24-0.21,0.09-0.27,0.03c0.04,0.04,0.75-0.06,0.89-0.07c0.74-0.04,1.47-0.01,2.21,0.01
			c0.56,0.02,0.67-0.23-0.28-0.07c0.31-0.05,0.79,0.14,1.08,0.21c0.41,0.1,1.34,0.59,1.75,0.54c-0.58,0.08-1.09-0.52-0.44-0.17
			c0.32,0.17,0.64,0.34,0.95,0.53c0.21,0.13,0.41,0.26,0.61,0.4c0.88,0.58-0.72-0.66-0.21-0.16c0.43,0.42,0.85,0.84,1.27,1.28
			c0.52,0.55-0.67-1.02-0.29-0.36c0.15,0.26,0.33,0.5,0.47,0.76c0.02,0.04,0.25,0.58,0.33,0.63c-0.34-0.84-0.42-1.04-0.27-0.61
			c0.06,0.17,0.12,0.34,0.17,0.51c0.03,0.1,0.21,0.67,0.17,0.7c-0.05-0.33-0.1-0.67-0.15-1c0.08-1.54,0.84-2.8,2.27-3.77
			c2.42,3.14,4.85,6.28,7.27,9.42c0.91-1.16,1.93-2.12,3-3.11c0.57-0.52-1.19,0.8-0.07,0.06c0.29-0.19,0.57-0.39,0.86-0.57
			c0.64-0.41,1.3-0.76,1.99-1.1c2.27-1.11,3.53-4.4,2.76-6.78c-0.78-2.42-3.09-4.56-5.79-4.4c-19.15,1.08-38.42,2.04-57.54-0.03
			c-1.38-0.15-2.76-0.28-4.13-0.5c0.05,0.01,1.08,0.15,0.38,0.05c-0.4-0.06-0.81-0.11-1.21-0.17c-0.53-0.08-1.06-0.16-1.59-0.25
			c-0.97-0.18-1.94-0.6-2.9-0.75c1.13,0.18,0.88,0.45,0.43,0.16c-0.21-0.13-1.02-0.75-0.31-0.11c0.77,0.7,0.08,0.08,0.05,0.02
			c-0.35-0.37-0.35-0.34,0,0.09c0.29,0.44,0.33,0.46,0.13,0.06c0.27,1.01,0.55,2.02,0.82,3.03c0-0.1-0.01-0.2-0.01-0.3
			c-0.27,1.01-0.55,2.02-0.82,3.03c-1.79,1.5-2.2,1.94-1.22,1.31c0.12-0.07,0.25-0.14,0.37-0.21c0.25-0.13,0.5-0.26,0.76-0.38
			c-0.22,0.09-0.43,0.18-0.65,0.27c0.15,0.04,1.04-0.36,1.2-0.41c0.41-0.12,0.82-0.23,1.24-0.32c0.57-0.12,1.44,0.01,0.09-0.07
			c0.4,0.02,0.88-0.09,1.28-0.11c0.86-0.05,1.72-0.04,2.57,0c0.45,0.03,0.9,0.08,1.35,0.11c1.28,0.11-1.14-0.24,0.23,0.04
			c0.91,0.18,1.81,0.34,2.72,0.56c1.8,0.43,3.58,0.95,5.36,1.47c3.01,0.88,6.67-1.07,7.38-4.19c0.73-3.21-0.97-6.44-4.19-7.38
			c-6.89-2.02-14.33-3.83-21.42-1.62c-1.71,0.53-3.46,1.25-4.96,2.25c-3.21,2.16-4.22,6.14-2.16,9.5c2.05,3.34,6.14,4.96,9.83,5.58
			c14.13,2.37,28.59,2.7,42.88,2.35c8.02-0.2,16.02-0.63,24.03-1.07c-1.01-3.73-2.02-7.45-3.03-11.18c-3.15,1.54-6.04,3.84-8.2,6.6
			c-1.87,2.38-2.45,5.32-0.47,7.88c1.84,2.39,5.09,3,7.74,1.55c6.31-3.45,3.26-11.52-0.28-15.7c-3.14-3.72-7.84-5.5-12.55-6.01
			c-4.47-0.48-9.94,0.52-13.81,2.9c-2.34,1.44-4.4,3.59-5.14,6.3c-0.78,2.85-0.16,6,1.56,8.38c2.76,3.83,6.93,6.4,11.62,7.09
			c5.1,0.74,10.3,0.21,14.38-3.21c4.33-3.63,4.68-10.36,1.1-14.58c-3.43-4.05-10.03-3.42-14.65-2.26c-2.54,0.64-5.1,1.71-7.3,3.12
			c-1.84,1.18-3.39,2.67-4.03,4.83c-0.72,2.39,0.06,5.17,1.9,6.84c2.6,2.36,6.25,2.05,9.53,2.2c2.71,0.12,5.42,0.24,8.13,0.37
			c-1.41-3.41-2.83-6.83-4.24-10.24c-5.25,4.53-9.73,10-13.22,15.98c-1.52,2.59-0.79,5.93,1.55,7.74c2.4,1.86,5.67,1.59,7.88-0.47
			c2.59-2.41,5.01-4.99,7.25-7.73c1.04-1.27,1.76-2.54,1.76-4.24c0-1.47-0.65-3.23-1.76-4.24c-2.34-2.15-6.18-2.43-8.49,0
			c-2.93,3.09-5.1,6.93-5.96,11.13c-0.61,2.96,0.61,5.87,3.47,7.08c2.72,1.15,5.98,0.15,7.49-2.45c2.74-4.7,4.78-10.58,1.3-15.52
			c-1.92-2.72-4.83-4.63-8.26-4.62c-3.45,0.02-6.19,2.1-8.05,4.83c-2.43,3.58-4.21,7.82-5.94,11.77c-1.95,4.48-3.71,9.03-5.19,13.68
			c-0.91,2.85,0.84,5.97,3.47,7.08c2.86,1.21,5.79,0.04,7.49-2.45c4.33-6.34,7.26-13.77,8.35-21.37c-3.93-0.53-7.86-1.06-11.79-1.6
			c-0.26,5.33-0.52,10.65-0.78,15.98c4,0,8,0,12,0c-0.26-6.12-0.22-12.25,0.1-18.37c0.16-2.98-2.4-5.52-5.2-5.89
			c-2.94-0.39-5.76,1.4-6.58,4.3c-0.24,0.85-0.54,1.67-0.85,2.5c-0.17,0.42-0.1,0.25,0.21-0.5c-0.08,0.19-0.17,0.37-0.25,0.56
			c-0.17,0.37-0.35,0.74-0.53,1.1c-0.76,1.53-1.6,3.01-2.42,4.51c-1.75,3.22-3.42,6.6-4.17,10.21c-0.34,1.6-0.54,3.24-0.97,4.82
			c-0.1,0.37-0.23,0.73-0.34,1.1c-0.32,1.08,0.66-1.05,0.01-0.04c-0.08,0.12-0.59,0.97-0.6,0.96c0.51-0.64,0.63-0.81,0.34-0.5
			c-1.39,1.38,0.36,1.15,5.25-0.7c-0.31-0.27-0.71-0.51-1.04-0.75c-1.23-0.89,0.98,0.8-0.2-0.15c-0.69-0.56-1.38-1.12-2.06-1.7
			c-1.46-1.26-2.85-2.6-4.17-4c-2.42,3.14-4.85,6.28-7.27,9.42c0.21,0.12,0.42,0.25,0.63,0.38c0.52,0.36,0.41,0.27-0.33-0.28
			c0.22,0.26,0.57,0.5,0.81,0.74c0.17,0.17,0.34,0.35,0.5,0.54c0.32,0.39,0.31,0.38-0.02-0.03c-0.32-0.42-0.33-0.42-0.04-0.01
			c0.13,0.2,0.26,0.41,0.38,0.63c0.14,0.25,0.28,0.78,0.49,0.98c-0.36-0.87-0.43-1.01-0.21-0.41c0.08,0.23,0.14,0.47,0.2,0.7
			c0.03,0.12,0.06,0.24,0.08,0.36c0.12,0.65,0.11,0.48-0.03-0.51c-0.09,0.41,0.07,1.03,0.06,1.46c-0.04,2.53,1.88,5.21,4.4,5.79
			c2.52,0.57,5.51-0.35,6.78-2.76c2.16-4.09,3.33-8.32,3.77-12.91c-3.93,0.53-7.86,1.06-11.79,1.6c0.63,1.75,1.44,3.86,1.47,5.74
			c-0.03-1.58-0.03-0.09,0,0.22c0.04,0.46,0.06,0.91,0.08,1.37c0.04,1.07,0.01,2.13-0.07,3.2c4,0,8,0,12,0
			c0.05-1.02,0.13-2.05,0.24-3.06c0.02-0.23,0.21-1.65,0.1-0.85c-0.11,0.79,0-0.01,0.02-0.14c0.05-0.31,0.09-0.63,0.14-0.94
			c0.37-2.48,0.76-4.96,1.05-7.46c0.46-3.99,0.38-8.06-0.6-11.97c-0.49-1.97-1.28-3.95-2.31-5.7c-1.39-2.38-3.37-4.87-6.13-5.66
			c-6.59-1.88-10.32,5.26-11.47,10.55c-0.57,2.61-0.8,5.29-0.44,7.93c0.53,3.96,3.38,7.11,7.53,7.22c2.84,0.08,4.84-1.96,5.79-4.4
			c1.21-3.14,0.88-6.64,0.23-9.86c-0.54-2.68-1.34-5.55-2.85-7.84c-3.42-5.17-9.66-7.73-15.44-9.27c-2.95-0.78-6.01-1.24-9.05-1.44
			c-2.97-0.19-6.08-0.11-8.7,1.5c-3.92,2.41-4.95,7.51-2.4,11.31c1.91,2.85,4.47,4.84,7.65,6.1c4.01,1.6,8.65,1.01,10.98-2.98
			c2.29-3.92,0.4-8.44-2.58-11.34c-4.98-4.84-13.06-6-18.42-1.05c-3.56,3.29-4.26,8.68-0.89,12.36c1.88,2.05,4.69,3.33,7.15,4.53
			c2.76,1.35,5.6,2.53,8.45,3.7c2.39,0.98,4.8,2.08,7.34,2.6c3.83,0.78,8.16,0.7,11.39-1.8c4.77-3.69,1.71-10.46-2.8-12.69
			c-2.96-1.47-6.36-2.17-9.6-2.73c-3.48-0.6-7.01-0.98-10.55-1.04c-3.14-0.05-6.14,2.8-6,6C87.26,283.34,89.75,285.99,93.11,286.05
			L93.11,286.05z"/>
	</g>
</g>
<g>
	<g>
		<path class="st1" d="M79.26,152.56c1.45-0.47,2.43-1.31,3.74-1.96c-2.02-3.45-4.04-6.91-6.06-10.36c-1.32,1.01-2.5,2.06-3.69,3.21
			c-0.2,0.2-0.4,0.39-0.61,0.58c-0.75,0.68-0.03-0.08,0.32-0.2c-0.21,0.07-0.64,0.41-0.83,0.53c-0.82,0.55,1.03-0.27,0.37-0.15
			c-0.46,0.08-1.21,0.13,0.4,0.01c-0.28,0.02-1.03-0.08,0.09,0.07c0.63,0.1,0.73,0.11,0.29,0.01c0.32,0.14,0.63,0.28,0.95,0.42
			c-0.55-0.33-0.34-0.1,0.61,0.71c1.7,1.31,1.99,3.2,0.88,5.69c-0.2,0.27-0.41,0.53-0.61,0.8c0.33-0.3,0.29-0.28-0.13,0.07
			c-0.81,0.64,0.02,0.03,0.23-0.09c0.52-0.3,1.06-0.56,1.62-0.8c2.15-0.92,3.15-3.89,2.86-5.98c-0.31-2.28-1.98-4.42-4.3-4.99
			c-3.94-0.97-7.39-0.02-10.98,1.57c-2.37,1.05-4.73,2.19-6.85,3.69c-1.28,0.91-2.54,1.87-3.64,3c-0.9,0.92-1.72,1.92-2.64,2.82
			c-0.14,0.13-0.57,0.72-0.78,0.73c0.16-0.01,0.99-0.6,0.21-0.21c-0.54,0.28-1.09,0.58-1.6,0.92c-1.85,1.22-3.02,2.75-4.29,4.53
			c-2.28,3.2,0.12,7.88,3.59,8.81c3.29,0.89,6.27-0.43,9.15-1.91c0.98-0.5-1,0.29-0.47,0.19c0.24-0.04,0.49-0.15,0.74-0.22
			c0.61-0.16,1.23-0.28,1.84-0.43c1.36-0.34,2.61-0.94,3.92-1.42c2.41-0.9,4.94-1.44,7.37-2.27c3.23-1.1,5.94-2.57,8.6-4.68
			c1.12-0.89,1.76-2.88,1.76-4.24c0-1.47-0.65-3.23-1.76-4.24c-1.14-1.05-2.64-1.83-4.24-1.76c-1.69,0.08-2.93,0.71-4.24,1.76
			c0.31-0.24,0.8-0.56,0.19-0.17c-0.23,0.15-0.46,0.31-0.7,0.45c-0.46,0.28-0.94,0.54-1.43,0.78c-0.23,0.11-0.53,0.19-0.73,0.34
			c0.26-0.19,1.07-0.42,0.31-0.15c-0.51,0.18-1.02,0.37-1.53,0.53c-2.26,0.73-4.57,1.25-6.79,2.08c-1.1,0.41-2.18,0.93-3.31,1.26
			c-1.05,0.3-2.15,0.46-3.19,0.81c-1.2,0.41-2.33,0.99-3.46,1.55c-1.21,0.59,1.07-0.38-0.15,0.06c-0.24,0.09-1.01,0.2,0.04,0.07
			c0.55-0.05,0.67-0.07,0.36-0.06c-0.5-0.01-0.19,0.03,0.92,0.11c1.2,2.94,2.39,5.88,3.59,8.81c0.17-0.24,0.34-0.48,0.51-0.72
			c-0.51,0.64-0.56,0.71-0.12,0.22c0.5-0.46,0.42-0.4-0.23,0.16c0.23-0.14,0.47-0.28,0.71-0.41c1.3-0.73,2.49-1.61,3.56-2.64
			c0.72-0.7,1.38-1.46,2.05-2.19c0.39-0.42,0.78-0.84,1.19-1.23c0.2-0.2,0.41-0.39,0.63-0.57c0.5-0.41,0.43-0.36-0.22,0.15
			c0.62-0.78,2.04-1.37,2.9-1.85c0.87-0.49,1.77-0.93,2.67-1.35c0.51-0.24,1.08-0.6,1.62-0.74c-1.56,0.41,0.31-0.1,0.62-0.19
			c0.27-0.09,0.55-0.16,0.83-0.22c0.67-0.13,0.56-0.12-0.33,0.03c0.29-0.02,0.58-0.02,0.87,0c-0.86-0.14-0.94-0.13-0.26,0.02
			c-0.48-3.66-0.96-7.31-1.43-10.97c-2.47,1.06-4.75,2.73-5.82,5.26c-1.81,4.3,0.95,8.76,5.26,9.91c2.84,0.76,6.1,0.12,8.52-1.51
			c1.07-0.72,2.07-1.55,2.99-2.45c0.36-0.35,0.72-0.72,1.09-1.07c0.34-0.33,1.66-1.41,0.17-0.27c1.3-1,2.3-1.94,2.76-3.59
			c0.4-1.44,0.22-3.35-0.6-4.62c-1.86-2.89-5.19-3.64-8.21-2.15c-0.36,0.18-0.67,0.39-1,0.63c-0.49,0.36-1.41,0.62,0.12,0.12
			c-2.98,0.97-5.22,4.19-4.19,7.38C72.84,151.35,76.07,153.61,79.26,152.56L79.26,152.56z"/>
	</g>
</g>
<g>
	<g>
		<path class="st1" d="M48.63,166.47c0.07-0.55,0.15-1.1,0.22-1.65c0.07-0.54,0.15-1.06,0-1.6c-0.17-0.63-0.56-1.16-1.08-1.56
			c-0.99-0.76-2.23-0.79-3.33-0.23c-1.11,0.56-1.62,1.6-2.25,2.59c-0.14,0.21-0.28,0.42-0.43,0.62c-0.36,0.51,0.38-0.45,0-0.01
			c-0.31,0.36-0.62,0.72-0.94,1.07c-0.58,0.62-1.16,1.24-1.78,1.82c-0.13,0.12-0.37,0.26-0.45,0.4c0.38-0.29,0.45-0.34,0.2-0.16
			c-0.07,0.05-0.14,0.1-0.21,0.14c-0.14,0.09-0.41,0.17-0.51,0.29c0.46-0.18,0.55-0.22,0.25-0.11c-0.11,0.04-0.22,0.07-0.33,0.09
			c-1.52,0.4-2.59,2.16-2.1,3.69c0.53,1.63,2.04,2.43,3.69,2.1c1.24-0.25,2.48-0.99,3.58-1.61c1.01-0.56,2-1.17,2.94-1.84
			c2.12-1.51,3.98-3.28,5.79-5.13c1.1-1.12,1.2-3.14,0-4.24c-1.19-1.09-3.07-1.2-4.24,0c-0.8,0.82-1.6,1.64-2.44,2.41
			c-0.41,0.38-0.82,0.75-1.25,1.1c-0.1,0.09-0.21,0.17-0.31,0.25c-0.07,0.05-0.43,0.34-0.09,0.07c0.35-0.27-0.02,0.01-0.09,0.06
			c-0.13,0.1-0.27,0.2-0.4,0.29c-0.86,0.61-1.76,1.17-2.68,1.69c-0.49,0.28-0.99,0.54-1.49,0.79c-0.23,0.12-0.46,0.22-0.69,0.34
			c-0.32,0.16,0.56-0.16,0.21-0.1c-0.15,0.03-0.29,0.08-0.44,0.11c0.53,1.93,1.06,3.86,1.6,5.79c2.11-0.55,3.64-2.09,5.1-3.61
			c0.77-0.81,1.48-1.64,2.15-2.54c0.26-0.35,0.51-0.72,0.74-1.1c0.11-0.19,0.22-0.38,0.33-0.57c0.17-0.26,0.11-0.18-0.19,0.24
			c-0.43,0.29-0.51,0.36-0.24,0.21c-1.47-1.13-2.94-2.26-4.41-3.39c-0.07,0.55-0.15,1.1-0.22,1.65c-0.11,0.84-0.14,1.55,0.3,2.31
			c0.36,0.62,1.08,1.22,1.79,1.38c0.77,0.17,1.63,0.14,2.31-0.3C47.86,167.88,48.53,167.22,48.63,166.47L48.63,166.47z"/>
	</g>
</g>
<g>
	<g>
		<path class="st1" d="M38.17,175.67c3.86,0,3.87-6,0-6C34.31,169.67,34.3,175.67,38.17,175.67L38.17,175.67z"/>
	</g>
</g>
<g>
	<g>
		<path class="st1" d="M105.42,75.32c-1.29,5.2-4.75,9.33-9.74,11.61c1.01,1.73,2.02,3.45,3.03,5.18c4.43-2.23,7.71-6,10.82-9.75
			c2.23-2.7-0.49-6.09-3.64-4.71c-2.44,1.07-4.02,3.23-5.82,5.09c-1.8,1.87-3.81,3.43-5.87,4.94c-2.23,1.63-4.5,3.23-6.63,5
			c-1.08,0.9-2.32,1.85-3.07,3.06c-1.06,1.7-0.9,3.55,0.39,5.06c1.05,1.23,3.16,1.08,4.24,0c1.22-1.22,1.06-3.01,0-4.24
			c-0.05-0.06-0.11-0.13-0.16-0.19c0.26,0.44,0.51,0.88,0.77,1.32c-0.07,0.44-0.14,0.89-0.21,1.33c0.17-0.28,0.2-0.33,0.1-0.17
			c-0.18,0.1,0.27-0.23,0.36-0.31c0.41-0.39,0.83-0.76,1.25-1.13c0.77-0.67,1.54-1.28,2.33-1.88c1.86-1.4,3.77-2.72,5.62-4.14
			c1.89-1.45,3.75-2.95,5.38-4.69c1.46-1.55,2.52-3.08,4.35-3.88c-1.21-1.57-2.42-3.14-3.64-4.71c-2.81,3.39-5.65,6.83-9.6,8.82
			c-1.45,0.73-1.86,2.77-1.08,4.1c0.89,1.51,2.63,1.75,4.1,1.08c6.18-2.83,10.87-8.62,12.5-15.2c0.39-1.57-0.51-3.25-2.1-3.69
			C107.57,72.81,105.81,73.74,105.42,75.32L105.42,75.32z"/>
	</g>
</g>
<g>
	<g>
		<path class="st1" d="M94.98,90.85c1.47-0.84,2.95-1.69,4.42-2.53c-1.01-1.73-2.02-3.45-3.03-5.18c-4.46,2.8-8.16,6.63-10.75,11.23
			c-0.65,1.16-0.48,2.68,0.47,3.64c0.88,0.88,2.57,1.24,3.64,0.47c7.8-5.61,15.31-11.62,22.48-18.01c-1.71-0.71-3.41-1.41-5.12-2.12
			c-0.57,9.62-2.22,19.11-4.88,28.37c-0.95,3.31,3.72,5.19,5.48,2.31c3.81-6.19,6.48-13.08,7.78-20.23
			c-1.96-0.27-3.93-0.53-5.89-0.8c-0.89,9.75-3.95,19.26-7.25,28.42c-1.4,3.89-3.37,7.21-6.71,9.72c-3.35,2.52-7.29,4.21-11.12,5.87
			c1.37,0.36,2.74,0.72,4.1,1.08c-5.67-11.49-4.3-25.67,3.06-36.11c-1.83-0.77-3.66-1.54-5.48-2.31c-2.04,8.96-5.83,17.99-3.4,27.28
			c0.3,1.14,1.34,2.01,2.49,2.15c1.28,0.15,2.25-0.42,2.99-1.43c5.08-6.93,4.62-16,8.7-23.34c-1.86-0.5-3.73-1.01-5.59-1.51
			c-0.31,7-1.31,13.92-2.96,20.73c-0.91,3.76,4.67,5.29,5.79,1.6c1.7-5.62,3.74-11.14,6.19-16.48c1.21-2.63,2.49-5.23,3.88-7.77
			c1.21-2.21,2.53-4.23,4.54-5.79c-1.57-1.21-3.14-2.42-4.71-3.64c-2.63,3.86-5.54,7.5-8.72,10.93c1.71,0.71,3.41,1.41,5.12,2.12
			c0.32-2.77,1.14-5.54,2.34-8.05c0.7-1.46,0.4-3.24-1.08-4.1c-1.34-0.78-3.37-0.37-4.1,1.08c-3.1,6.13-6.22,12.36-7.77,19.1
			c-0.55,2.39,2.11,4.92,4.41,3.39c2.12-1.41,3.63-3.38,4.32-5.85c1.03-3.73-4.7-5.3-5.79-1.6c-1.36,4.65-2.72,9.3-4.07,13.96
			c-0.63,2.15-1.2,4.32-1.9,6.45c-0.47,1.43-1,2.54-2.17,3.08c1.5,0.86,3.01,1.73,4.51,2.59c-0.01-2.48,0.07-4.96,0.24-7.44
			c-2,0-4,0-6,0c-0.04,3.81,1.21,12.22,6.85,10.58c2.2-0.64,3.99-2.63,5.3-4.41c1.19-1.63,2.09-3.44,2.91-5.27
			c3.76-8.33,5.72-17.23,7.59-26.13c-1.93-0.53-3.86-1.06-5.79-1.6c-1.7,8.53-3.65,17.01-5.84,25.43c-0.37,1.44,0.35,2.98,1.74,3.54
			c1.27,0.51,3.11,0.15,3.75-1.23c2.18-4.76,4.31-9.53,6.39-14.33c-1.86-0.5-3.73-1.01-5.59-1.51c-0.05,2.1-0.25,4.17-0.65,6.24
			c-0.31,1.59,0.45,3.24,2.1,3.69c1.47,0.4,3.38-0.5,3.69-2.1c0.5-2.58,0.81-5.2,0.87-7.83c0.03-1.31-0.95-2.55-2.2-2.89
			c-1.17-0.32-2.87,0.18-3.39,1.38c-2.08,4.8-4.21,9.58-6.39,14.33c1.83,0.77,3.66,1.54,5.48,2.31c2.19-8.42,4.14-16.9,5.84-25.43
			c0.32-1.59-0.45-3.24-2.1-3.69c-1.49-0.41-3.36,0.5-3.69,2.1c-1.28,6.09-2.56,12.2-4.49,18.12c-0.91,2.8-1.96,5.56-3.26,8.21
			c-0.59,1.19-1.21,2.42-2.03,3.47c-0.33,0.42-0.71,0.82-1.1,1.18c-0.14,0.13-0.37,0.28-0.47,0.4c-0.41,0.48-0.45-0.05,0.33,0.21
			c0.44,0.26,0.88,0.51,1.32,0.77c-0.44-0.35-0.72-1.74-0.88-2.44c-0.24-1.03-0.31-2.04-0.3-3.1c0.02-1.62-1.39-3-3-3
			c-1.72,0-2.89,1.38-3,3c-0.17,2.48-0.25,4.96-0.24,7.44c0.01,2.44,2.5,3.52,4.51,2.59c4.32-2,5.22-7.62,6.41-11.7
			c1.5-5.13,2.99-10.25,4.49-15.38c-1.93-0.53-3.86-1.06-5.79-1.6c-0.27,0.96-0.77,1.74-1.56,2.27c1.47,1.13,2.94,2.26,4.41,3.39
			c1.44-6.26,4.28-11.97,7.17-17.66c-1.73-1.01-3.45-2.02-5.18-3.03c-1.69,3.55-2.71,7.18-3.16,11.08c-0.3,2.62,3.46,3.91,5.12,2.12
			c3.52-3.8,6.74-7.86,9.66-12.14c0.83-1.22,0.35-3.03-0.77-3.87c-1.3-0.97-2.72-0.71-3.94,0.23c-2.2,1.71-3.83,4.06-5.18,6.47
			c-1.52,2.7-2.88,5.49-4.17,8.3c-2.66,5.81-4.94,11.8-6.8,17.92c1.93,0.53,3.86,1.06,5.79,1.6c1.78-7.31,2.84-14.8,3.18-22.32
			c0.13-2.99-4.17-4.07-5.59-1.51c-2.12,3.81-3.17,8.02-4.22,12.22c-0.99,3.94-2.04,7.8-4.48,11.12c1.83,0.24,3.66,0.48,5.48,0.72
			c-2.1-8.06,1.64-16.32,3.4-24.09c0.78-3.41-3.54-5.07-5.48-2.31c-8.61,12.2-9.64,28.85-3.06,42.17c0.78,1.57,2.71,1.68,4.1,1.08
			c6.49-2.81,13.08-5.99,17.19-12c2.32-3.39,3.52-7.49,4.83-11.34c1.3-3.86,2.53-7.75,3.54-11.7c1.19-4.65,2.05-9.38,2.49-14.16
			c0.31-3.34-5.29-4.13-5.89-0.8c-1.22,6.69-3.61,13.01-7.18,18.8c1.83,0.77,3.66,1.54,5.48,2.31c2.8-9.76,4.49-19.83,5.09-29.97
			c0.16-2.76-3.31-3.74-5.12-2.12c-6.79,6.05-13.88,11.75-21.26,17.07c1.37,1.37,2.74,2.74,4.1,4.1c2.09-3.71,4.99-6.81,8.6-9.07
			c3.26-2.05,0.34-7.11-3.03-5.18c-1.47,0.84-2.95,1.69-4.42,2.53C88.61,87.59,91.62,92.78,94.98,90.85L94.98,90.85z"/>
	</g>
</g>
<g>
	<g>
		<path class="st1" d="M132.38,94.59c1.39-4.36,0.68-8.9-0.39-13.24c-1-4.07-2.33-8.08-1.95-12.32c0.3-3.39-5.1-4.04-5.89-0.8
			c-1.69,6.93-0.65,14.3,2.97,20.45c1.73-1.01,3.45-2.02,5.18-3.03c-1.07-1.44-1.47-3.06-1.6-4.83c-0.17-2.35-0.13-4.72,0.01-7.06
			c0.28-4.66,1.18-9.24,2.55-13.7c-1.93-0.53-3.86-1.06-5.79-1.6c-0.83,3.02-1.65,6.04-2.48,9.07c1.93,0,3.86,0,5.79,0
			c-0.38-2.37-0.16-4.78,0.46-7.09c-1.96-0.27-3.93-0.53-5.89-0.8c-0.19,2.26-0.71,4.46-1.44,6.61c1.96,0.27,3.93,0.53,5.89,0.8
			c-0.4-4.24,2.46-8.18,4.45-11.7c2.15-3.8,4.43-7.55,7.34-10.82c-1.41-1.41-2.83-2.83-4.24-4.24c-4.15,4.95-7.85,10.25-10.99,15.9
			c1.73,1.01,3.45,2.02,5.18,3.03c3.52-8.28,10.25-15.08,18.64-18.27c-0.77-1.83-1.54-3.66-2.31-5.48
			c-4.11,1.77-8.08,3.64-11.52,6.56c-2.57,2.18,0.85,6.7,3.64,4.71c5.06-3.62,10.46-6.71,16.14-9.24c3.08-1.37,0.89-6.62-2.31-5.48
			c-5.95,2.12-11.54,5.06-16.56,8.9c-1.19,0.91-1.88,2.26-1.23,3.75c0.57,1.31,2.09,2.21,3.54,1.74c2.77-0.9,5.48-2.04,8.04-3.42
			c1.17-0.63,2.3-1.32,3.41-2.04c1.04-0.68,2.14-1.57,3.4-1.79c0.2-0.04,0.66-0.04,0.93,0.05c-0.22-0.07,0.36,0.33,0.15,0.08
			c0.46,0.58,0.37,1.81,0.4,2.82c0.08,3.14,0.16,6.27,0.24,9.41c0.15,5.69,0.45,11.54-1.5,16.98c-0.78,2.16-2,4.2-3.65,5.8
			c-1.73,1.68-3.93,2.78-6.08,3.82c-2.55,1.22-5.18,2.33-7.52,3.93c-2.81,1.92-5.21,4.32-7.57,6.75c1.71,0.71,3.41,1.41,5.12,2.12
			c-0.16-12.29,2.24-24.34,4.67-36.32c0.77-3.81-4.45-5.21-5.79-1.6c-2.92,7.89-4.98,16.05-6.15,24.38c-0.22,1.6,0.39,3.22,2.1,3.69
			c1.5,0.41,3.34-0.51,3.69-2.1c2.57-11.61,6.9-22.71,12.91-32.97c-1.86-0.5-3.73-1.01-5.59-1.51c0.16,4.71-0.69,9.42-2.67,13.71
			c-1.48,3.2,2.01,5.74,4.71,3.64c5.16-4.01,10.12-8.26,14.89-12.73c1.81-1.7,0.64-4.21-1.32-5.01c-3.11-1.27-5.86,1.44-7.7,3.58
			c-1.86,2.17-3.49,4.53-4.82,7.07c1.83,0.77,3.66,1.54,5.48,2.31c1.96-5.12,3.92-10.25,5.88-15.37c-1.93-0.53-3.86-1.06-5.79-1.6
			c-1.07,3.49-2.83,6.75-5.21,9.52c1.67,0.97,3.34,1.95,5.01,2.92c0.96-2.4,1.92-4.8,2.88-7.2c1.09-2.72-3.19-5.22-5.01-2.92
			c-5.51,6.97-9.68,14.81-12.24,23.33c-0.99,3.28,3.76,5.22,5.48,2.31c3.88-6.56,7.54-13.25,10.97-20.06c-1.73,0-3.45,0-5.18,0
			c-0.31-0.58-0.01-0.73-0.24,0.01c-0.16,0.5-0.36,0.98-0.54,1.47c-0.35,0.93-0.71,1.87-1.06,2.8c-0.8,2.1-1.6,4.2-2.39,6.3
			c-1.57,4.12-3.13,8.24-4.7,12.36c-1.2,3.16,3.99,5.36,5.48,2.31c1.87-3.81,3.34-7.8,4.31-11.94c0.34-1.45-0.33-2.97-1.74-3.54
			c-1.27-0.51-3.11-0.15-3.75,1.23c-2.71,5.84-4.83,11.92-6.24,18.2c-0.33,1.45,0.32,2.97,1.74,3.54c1.26,0.51,3.13,0.15,3.75-1.23
			c0.81-1.81,1.62-3.61,2.43-5.42c-1.83-0.77-3.66-1.54-5.48-2.31c-0.88,3.14-1.85,6.25-2.93,9.33c-0.54,1.53,0.61,3.28,2.1,3.69
			c1.66,0.46,3.15-0.56,3.69-2.1c1.65-4.68,2.65-9.5,3.14-14.44c0.13-1.29-1.02-2.57-2.2-2.89c-1.31-0.36-2.68,0.25-3.39,1.38
			c-1.94,3.08-3.42,6.44-4.43,9.93c1.93,0.53,3.86,1.06,5.79,1.6c0.6-3.72,1.19-7.45,1.79-11.17c-1.93-0.53-3.86-1.06-5.79-1.6
			c-0.53,3.86-0.86,7.72-0.84,11.62c0.02,3.28,0.74,7.68,4.91,7.83c3.89,0.14,5.87-4.61,7.6-7.36c1.96-3.12,3.88-6.27,5.77-9.44
			c-1.83-0.77-3.66-1.54-5.48-2.31c-0.56,2.38-1.52,4.49-2.92,6.5c1.83,0.77,3.66,1.54,5.48,2.31c1.76-5.45,3.1-11.02,3.99-16.67
			c0.53-3.34-3.46-5.2-5.48-2.31c-2.62,3.75-4.62,7.89-6.01,12.24c1.96,0.27,3.93,0.53,5.89,0.8c0.44-4.92,1.63-9.75,3.4-14.36
			c-1.93-0.53-3.86-1.06-5.79-1.6c-1,4.2-1.71,8.44-2.19,12.73c-0.34,3.04,4.22,3.97,5.59,1.51c2.46-4.42,4.36-9.16,5.6-14.07
			c-1.96-0.27-3.93-0.53-5.89-0.8c0.3,2.41,0.33,4.82,0.09,7.24c-0.14,1.47,1.25,2.79,2.6,2.95c1.5,0.18,2.84-0.69,3.29-2.15
			c0.46-1.47,0.92-2.94,1.38-4.41c-1.96-0.27-3.93-0.53-5.89-0.8c-0.66,5.75-1.84,11.44-3.44,17.01c1.93,0.53,3.86,1.06,5.79,1.6
			c1.53-6.34,3.05-12.67,4.58-19.01c-1.96-0.27-3.93-0.53-5.89-0.8c0.03,4.39-0.2,8.8-0.81,13.15c1.96,0.27,3.93,0.53,5.89,0.8
			c0.52-8.88,1.04-17.76,1.55-26.63c0.17-2.84-4.4-4.27-5.59-1.51c-4.85,11.17-9.45,22.45-13.78,33.82
			c-0.58,1.51,0.64,3.29,2.1,3.69c1.69,0.46,3.11-0.58,3.69-2.1c4.15-10.89,8.53-21.7,13.18-32.39c-1.86-0.5-3.73-1.01-5.59-1.51
			c-0.52,8.88-1.04,17.76-1.55,26.63c-0.09,1.47,1.21,2.78,2.6,2.95c1.32,0.16,3.08-0.65,3.29-2.15c0.68-4.9,1.06-9.8,1.02-14.75
			c-0.02-3.32-5.09-4.15-5.89-0.8c-1.53,6.34-3.05,12.67-4.58,19.01c-0.9,3.75,4.72,5.32,5.79,1.6c1.74-6.09,2.93-12.31,3.65-18.6
			c0.17-1.46-1.27-2.79-2.6-2.95c-1.5-0.18-2.84,0.69-3.29,2.15c-0.46,1.47-0.92,2.94-1.38,4.41c1.96,0.27,3.93,0.53,5.89,0.8
			c0.24-2.42,0.21-4.83-0.09-7.24c-0.18-1.48-1-2.76-2.6-2.95c-1.44-0.17-2.92,0.68-3.29,2.15c-1.12,4.43-2.77,8.64-5,12.63
			c1.86,0.5,3.73,1.01,5.59,1.51c0.42-3.75,1.1-7.46,1.98-11.14c0.38-1.57-0.5-3.25-2.1-3.69c-1.69-0.46-3.11,0.58-3.69,2.1
			c-1.96,5.14-3.12,10.49-3.61,15.96c-0.13,1.47,1.24,2.78,2.6,2.95c1.51,0.18,2.83-0.69,3.29-2.15c1.24-3.88,3.07-7.48,5.41-10.81
			c-1.83-0.77-3.66-1.54-5.48-2.31c-0.9,5.66-2.23,11.22-3.99,16.67c-0.46,1.41,0.42,3.01,1.74,3.54c1.45,0.58,2.87,0.03,3.75-1.23
			c1.66-2.39,2.85-5.1,3.52-7.93c0.77-3.27-3.71-5.3-5.48-2.31c-1.43,2.41-2.89,4.81-4.37,7.2c-0.72,1.16-1.44,2.31-2.17,3.47
			c-0.61,0.97-1.59,2.14-1.99,3.12c-0.07,0.16-0.28,0.18-0.2,0.23c0.35-0.04,0.7-0.08,1.05-0.12c0.21,0.12,0.42,0.23,0.63,0.35
			c0.19,0.13,0.1,0.46,0.13,0.17c0.02-0.16-0.12-0.45-0.15-0.62c-0.09-0.52,0.03,0.35,0-0.15c-0.02-0.38-0.02-0.76-0.03-1.14
			c-0.01-0.66-0.01-1.32,0-1.97c0.04-2.85,0.23-5.72,0.62-8.54c0.22-1.6-0.39-3.22-2.1-3.69c-1.43-0.39-3.43,0.49-3.69,2.1
			c-0.6,3.72-1.19,7.45-1.79,11.17c-0.26,1.6,0.41,3.23,2.1,3.69c1.58,0.44,3.24-0.53,3.69-2.1c0.87-3.03,2.15-5.83,3.83-8.5
			c-1.86-0.5-3.73-1.01-5.59-1.51c-0.44,4.38-1.47,8.69-2.93,12.84c1.93,0.53,3.86,1.06,5.79,1.6c1.08-3.08,2.05-6.19,2.93-9.33
			c0.4-1.43-0.37-2.99-1.74-3.54c-1.26-0.51-3.13-0.15-3.75,1.23c-0.81,1.81-1.62,3.61-2.43,5.42c1.83,0.77,3.66,1.54,5.48,2.31
			c1.3-5.77,3.15-11.4,5.64-16.77c-1.83-0.77-3.66-1.54-5.48-2.31c-0.85,3.63-2.06,7.15-3.7,10.5c1.83,0.77,3.66,1.54,5.48,2.31
			c1.74-4.59,3.49-9.17,5.23-13.76c0.86-2.25,1.71-4.51,2.57-6.76c0.9-2.36,1.84-4.6,0.53-7.04c-1.03-1.91-4.17-2-5.18,0
			c-3.43,6.81-7.09,13.49-10.97,20.06c1.83,0.77,3.66,1.54,5.48,2.31c2.25-7.47,5.86-14.56,10.7-20.68
			c-1.67-0.97-3.34-1.95-5.01-2.92c-0.96,2.4-1.92,4.8-2.88,7.2c-1.11,2.78,3.12,5.11,5.01,2.92c3.08-3.58,5.37-7.65,6.76-12.17
			c0.48-1.55-0.57-3.27-2.1-3.69c-1.69-0.46-3.11,0.58-3.69,2.1c-1.96,5.12-3.92,10.25-5.88,15.37c-1.22,3.18,3.92,5.3,5.48,2.31
			c0.88-1.69,1.88-3.34,3.05-4.85c0.62-0.8,1.29-1.56,1.99-2.29c0.19-0.2,0.44-0.4,0.59-0.62c0.34-0.08,0.45-0.16,0.31-0.23
			c-0.65-0.11-0.72-0.07-0.2,0.1c-0.44-1.67-0.88-3.34-1.32-5.01c-4.76,4.48-9.73,8.72-14.89,12.73c1.57,1.21,3.14,2.42,4.71,3.64
			c2.43-5.26,3.68-10.93,3.49-16.74c-0.1-2.93-4.05-4.14-5.59-1.51c-6.25,10.67-10.84,22.32-13.51,34.4
			c1.93,0.53,3.86,1.06,5.79,1.6c1.17-8.33,3.23-16.5,6.15-24.38c-1.93-0.53-3.86-1.06-5.79-1.6c-2.53,12.49-5.06,25.12-4.89,37.92
			c0.03,2.55,3.28,4.02,5.12,2.12c2.09-2.16,4.19-4.4,6.72-6.07c2.36-1.55,4.98-2.63,7.51-3.86c2.61-1.27,5.17-2.77,7.22-4.87
			c2.17-2.21,3.68-4.91,4.77-7.78c2.34-6.17,2.01-12.97,1.85-19.45c-0.09-3.37-0.08-6.77-0.27-10.14c-0.18-3.27-1.47-6.49-4.91-7.46
			c-3.67-1.03-6.73,0.94-9.68,2.82c-2.91,1.85-6.01,3.31-9.29,4.38c0.77,1.83,1.54,3.66,2.31,5.48c4.59-3.51,9.67-6.36,15.13-8.3
			c-0.77-1.83-1.54-3.66-2.31-5.48c-5.68,2.53-11.08,5.62-16.14,9.24c1.21,1.57,2.42,3.14,3.64,4.71c2.99-2.54,6.73-4.08,10.3-5.62
			c1.35-0.58,1.76-2.52,1.23-3.75c-0.55-1.26-2.12-2.28-3.54-1.74c-9.84,3.74-18.09,11.29-22.23,21.03
			c-0.63,1.49-0.45,3.21,1.08,4.1c1.38,0.81,3.31,0.34,4.1-1.08c2.89-5.2,6.24-10.13,10.06-14.69c1.04-1.24,1.22-3.03,0-4.24
			c-1.1-1.1-3.16-1.22-4.24,0c-3.35,3.77-6.03,8.03-8.5,12.42c-2.45,4.36-5.54,9.12-5.05,14.34c0.31,3.33,4.77,4.12,5.89,0.8
			c0.9-2.66,1.41-5.4,1.65-8.2c0.29-3.42-5.03-4-5.89-0.8c-0.92,3.4-1.01,6.81-0.46,10.28c0.2,1.28,1.68,2.2,2.89,2.2
			c1.31,0,2.55-0.93,2.89-2.2c0.83-3.02,1.65-6.04,2.48-9.07c1.02-3.74-4.65-5.28-5.79-1.6c-1.57,5.11-2.51,10.43-2.79,15.77
			c-0.25,4.68-0.53,10.49,2.43,14.45c0.97,1.3,2.59,1.96,4.1,1.08c1.4-0.82,1.9-2.7,1.08-4.1c-2.81-4.77-3.68-10.45-2.37-15.83
			c-1.96-0.27-3.93-0.53-5.89-0.8c-0.38,4.33,0.8,8.58,1.87,12.73c0.96,3.74,1.87,7.52,0.69,11.23c-0.49,1.54,0.58,3.27,2.1,3.69
			C130.31,97.13,131.88,96.14,132.38,94.59L132.38,94.59z"/>
	</g>
</g>
<g>
	<g>
		<path class="st1" d="M129,91c3.86,0,3.87-6,0-6C125.14,85,125.13,91,129,91L129,91z"/>
	</g>
</g>
<g>
	<g>
		<path class="st1" d="M141.24,156.83c2.5-6.23,6.14-12.08,10.62-17.08c4.65-5.19,10.4-9.32,14.18-15.26
			c1.87-2.94-2.28-5.92-4.71-3.64c-3.83,3.6-7.17,7.72-9.94,12.2c-0.85,1.38-0.3,3.3,1.08,4.1c1.54,0.9,3.12,0.22,4.1-1.08
			c1.76-2.32,3.31-4.77,4.62-7.37c1.28-2.52-1.43-5.83-4.1-4.1c-2.67,1.72-4.87,3.96-6.51,6.68c-1.48,2.47,1.57,5.84,4.1,4.1
			c3.46-2.38,6.35-5.37,9.31-8.33c2.66-2.66,5.38-5.3,8.89-6.78c2.12-0.89,4.45-1.3,6.73-1.46c2.01-0.14,4.7-0.53,6.61,0.28
			c1.88,0.79,3.45,2.77,4.85,4.18c1.77,1.78,3.45,3.65,5.07,5.57c0.44-1.67,0.88-3.34,1.32-5.01c-0.77,0.28-1.55,0.57-2.35,0.77
			c-0.24,0.06-0.49,0.14-0.74,0.17c-0.01,0-1.05,0.03-0.8,0.06c-0.48-0.05-0.87-0.14-1.25-0.48c0.09,0.08,0.14,0.21,0.02-0.04
			c-0.09-0.18-0.11-0.36-0.15-0.59c-0.31-1.77-0.57-3.18-1.75-4.61c-0.84-1.02-1.93-1.77-2.99-2.55c-1.86-1.37-3.07-4.32-5.71-5.21
			c-1.42-0.48-3.03-0.39-4.38,0.28c-1.61,0.81-2.3,2.19-2.52,3.92c-0.15,1.16,1.03,2.72,2.2,2.89c1.84,0.27,3.24-0.07,4.89-0.9
			c0.54-0.27,0.57-0.37,1.03-0.47c0.26-0.06-0.26-0.08,0.22,0.01c-0.65-0.12-0.9-0.19-1.26-1.12c0.26-0.97,0.51-1.95,0.77-2.92
			c-4.5,5.73-8.91,11.54-13.22,17.42c1.83,0.77,3.66,1.54,5.48,2.31c0.83-3.55,1.65-7.09,2.48-10.64c0.7-3.01-2.76-4.87-5.01-2.92
			c-6.93,6.02-13.95,11.96-20.78,18.1c-3.2,2.88-6.32,5.85-9.19,9.06c-2.74,3.06-7.13,7.17-5.27,11.67
			c1.58,3.84,6.31,5.72,9.87,7.21c3.86,1.62,8.12,2.71,12.34,2.27c3.89-0.4,7.64-1.82,10.54-4.51c3.2-2.97,4.36-7.09,4.89-11.29
			c0.26-2.09,0.33-4.21,0.7-6.28c0.37-2.07,1.03-4.09,1.88-6.01c1.88-4.24,4.24-8.34,5.18-12.93c0.27-1.32-0.18-2.69-1.38-3.39
			c-1.11-0.65-2.74-0.51-3.64,0.47c-5.07,5.55-8.58,12.45-9.86,19.88c-0.35,2.02,1.34,4.57,3.69,3.69c4.82-1.8,7.43-6.32,9.67-10.68
			c2.43-4.74,4.31-9.74,6.18-14.71c-1.96-0.27-3.93-0.53-5.89-0.8c0.04,2.26,0.08,4.51,0.13,6.77c0.03,1.86,1.9,3.52,3.8,2.89
			c2.55-0.84,3.69-3.03,3.27-5.62c-0.41-2.5-4.41-2.96-5.48-0.72c-3.41,7.15-7.36,14.03-11.82,20.57c1.83,0.77,3.66,1.54,5.48,2.31
			c1.35-8.77,2.71-17.54,4.1-26.3c0.37-2.34-1.3-4.13-3.69-3.69c-3.8,0.7-5.93,4.23-7.25,7.54c-1.48,3.7-2.57,7.6-3.43,11.49
			c-0.37,1.66-0.56,3.4-1.13,5.01c-0.19,0.54,0.03,0.03-0.22,0.48c-0.1,0.18-0.21,0.36-0.33,0.53c0.15-0.21,0.11-0.19-0.12,0.06
			c0.25-0.2,0.52-0.09,0.05-0.11c-0.01,0,0.66,0.05,0.59,0.08c-0.3-0.18-0.33-0.2-0.09-0.05c-0.22-0.24-0.27-0.29-0.15-0.16
			c-0.04-0.16-0.04-0.03-0.13-0.37c-0.16-0.6-0.11,0.16-0.04-0.45c-0.06,0.5,0.11-0.37,0.16-0.48c0.48-1.07,1.93-2.06,3-2.78
			c-1.47-0.6-2.94-1.2-4.41-1.79c0.52,1.79-0.52,3.57-1.48,5.11c-0.89,1.43-1.92,3.16-3.44,3.99c-0.66,0.36-1.24,0.5-1.91,0.33
			c0.3,0.07-0.38-0.25-0.17-0.08c-0.29-0.23-0.36-0.33-0.58-0.76c-0.09-0.19-0.09-0.53,0.16-0.94c0.11-0.17,0.37-0.41,0.36-0.4
			c0.33-0.18,0.4-0.22,0.22-0.14c0.99-0.2,0.46-0.48-1.58-0.83c-0.14-0.5-0.27-1.01-0.41-1.51c0.03,0.36,0.06,0.51-0.07,0.83
			c-0.06,0.13-0.32,0.44-0.68,0.78c-0.51,0.48-1.4,1.29-2.19,1.5c0.53,0,1.06,0,1.6,0c-0.13-0.03-0.25-0.05-0.38-0.08
			c0.44,0.26,0.88,0.51,1.32,0.77c0.12,0.21,0.23,0.42,0.35,0.63c-0.08-0.37-0.1-0.44-0.06-0.21c-0.01,0.07,0.03-1.05-0.03-0.56
			c0.07-0.56,0.21-0.88,0.39-1.19c0.38-0.67-0.17,0.09,0.34-0.48c0.08-0.09,0.42-0.31,0.44-0.39c-0.73-0.41-1.46-0.81-2.19-1.22
			c-0.02-0.24-0.03-0.25-0.02-0.03c-0.05,0.12-0.06,0.55-0.14,0.89c-0.29,1.25-0.82,2.46-1.62,3.47c-1.05,1.32-1.75,1.3-3.36,1.58
			c-3.32,0.57-5.79,3.15-7.2,6.09c-0.89,1.86-1.14,3.88,0.55,5.42c1.25,1.14,3.04,1.9,4.55,2.65c5.94,2.96,12.9,4.59,19.02,1.17
			c2.68-1.5,4.83-3.84,5.93-6.72c1.21-3.17,0.89-7.74-3.04-8.7c-1.85-0.45-3.68,0.15-5.38,0.84c-1.77,0.71-3.48,1.55-5.19,2.4
			c-1.47,0.73-2.94,1.5-4.49,2.08c-0.75,0.28-1.52,0.53-2.3,0.72c-0.58,0.14-1.61,0.37-1.88,0.26c0.44,0.26,0.88,0.51,1.32,0.77
			c0.53,0.64,0.64,1.23,0.32,1.76c-0.02,0.07-0.06,0.1-0.12,0.09c0.15,0.02,0.63-0.34,0.93-0.39c0.42-0.06,1.04,0.13,1.65,0.47
			c0.36,0.2,0.65,0.44,0.95,0.71c0.22,0.2,0.57,0.78,0.82,0.85c-0.44-0.12,0.35-1.27,0.57-1.69c0.26-0.12,0.22-0.13-0.14-0.02
			c0.28-0.03,0.24-0.03-0.13,0c-0.45,0.02-0.9-0.01-1.35-0.05c0.2,0.02-0.39-0.06-0.43-0.2c0.14,0.46,0.54,0.38,0.6,0.88
			c0.03,0.36-0.1,0.67-0.4,0.94c-1.11,0.6-2,0.59-2.68-0.02c-0.08-0.06-0.11-0.15-0.08-0.25c0.02,0.25,0.02,0.51,0.01,0.76
			c-0.03,0.38-0.08,0.65-0.23,1.08c-0.27,0.74-0.69,1.28-1.3,1.84c-0.99,0.92-1.09,2.5-0.47,3.64c1.35,2.45,4.41,2.52,6.6,1.25
			c1.89-1.09,3.36-2.89,4.55-4.68c1.09-1.65,1.95-3.44,2.93-5.16c0.19-0.34,0.68-0.87,0.76-1.24c-0.01,0.06-0.04,0.09-0.1,0.1
			c-1.27,0.32-2.08-0.02-2.43-1.02c0.08,0.34,0.09,0.35,0.02,0.04c-0.03,0.36-0.01,0.4,0.04,0.12c-0.07,0.28-0.21,0.72-0.27,0.8
			c0.36-0.36,0.72-0.72,1.08-1.08c0.09-0.04,0.18-0.09,0.27-0.13c0.53,0,1.06,0,1.6,0c-0.71-0.16,1.15,0.51,0.91,0.69
			c0.11-0.08-0.03-1.15-0.02-1.39c0.03-0.98,0.16-1.93,0.36-2.89c0.46-2.18,1.15-4.31,1.9-6.41c1.43-3.98,3.29-7.78,5.47-11.4
			c1.48-2.46-1.58-5.86-4.1-4.1c-3.32,2.32-6.42,4.97-6.78,9.27c-0.18,2.13,0.43,4.26,1.2,6.22c0.82,2.11,1.7,4.19,2.55,6.28
			c0.51,1.25,1.46,2.2,2.89,2.2c1.28,0,2.6-0.93,2.89-2.2c0.6-2.61,1.21-5.22,1.81-7.82c0.36-1.58-0.49-3.25-2.1-3.69
			c-1.52-0.42-3.32,0.51-3.69,2.1c-0.6,2.61-1.21,5.22-1.81,7.82c1.93,0,3.86,0,5.79,0c-0.68-1.66-1.36-3.33-2.03-4.99
			c-0.59-1.46-1.33-3.02-1.51-4.6c-0.29-2.59,1.84-4.02,3.82-5.4c-1.37-1.37-2.74-2.74-4.1-4.1c-2.33,3.87-4.28,7.95-5.85,12.19
			c-1.59,4.29-3.21,9.15-2.6,13.78c0.31,2.4,2.34,4.84,5,4.23c2.38-0.54,3.28-3.14,3.28-5.34c0.01-2.2-1.14-4.29-3.37-4.85
			c-2.68-0.68-4.65,1.4-5.87,3.48c-1,1.71-1.85,3.5-2.92,5.17c-0.54,0.84-0.95,1.39-1.65,2.08c-0.27,0.27-0.58,0.51-0.79,0.66
			c-0.08,0.06-0.35,0.16-0.41,0.25c0.44-0.65,2.39,1.72,1.86,0.76c-0.16,1.21-0.31,2.42-0.47,3.64c2.78-2.56,4.53-7.5,2.37-10.97
			c-1.21-1.94-3.78-2.73-5.79-1.54c-1.78,1.05-2.53,3.47-1.97,5.4c1.16,3.95,6.89,4.81,10.16,3.15c2.06-1.04,2.93-3.38,2.19-5.54
			c-0.65-1.9-2.43-3.47-4.06-4.55c-3.38-2.22-8.78-2.05-11,1.77c-1.24,2.14-0.75,5.02,1.58,6.13c1.85,0.88,4.32,0.23,6.2-0.32
			c3.59-1.06,6.84-2.98,10.23-4.55c0.7-0.32,1.4-0.62,2.12-0.88c0.31-0.11,0.84-0.28,1.03-0.33c-0.16,0.04,0.31-0.06,0.31-0.02
			c0,0.11-1.04-0.93-1.03-0.93c0.14-0.01-0.07,1.13-0.14,1.41c-0.15,0.54-0.38,1.03-0.83,1.69c-1.65,2.41-4.97,3.53-7.98,3.37
			c-1.97-0.1-3.94-0.7-5.75-1.45c-0.97-0.4-1.9-0.87-2.83-1.36c-0.52-0.27-1.03-0.56-1.55-0.85c-0.19-0.11-0.38-0.22-0.57-0.33
			c-0.5-0.29-0.63-0.67-0.16,0.1c0.14,0.5,0.27,1.01,0.41,1.51c0.01,0.08-0.39,0.7,0.08-0.13c0.19-0.33,0.36-0.67,0.56-0.99
			c0.33-0.53,0.69-1,1.2-1.4c0.95-0.74,2.7-0.6,4.03-1.09c3.45-1.28,5.8-4.92,6.73-8.35c0.48-1.75,0.76-3.78-0.14-5.45
			c-1.16-2.16-3.77-2.62-5.86-1.57c-2.97,1.5-4.76,5.06-4.44,8.33c0.22,2.23,1.37,4.44,3.94,4.44c1.88,0,3.88-1.62,5.25-2.79
			c2.53-2.18,4.77-7.39,0.82-9.44c-3.55-1.84-7.68,1.75-8.49,5.08c-0.88,3.61,1.42,7.56,4.99,8.6c4.46,1.29,8.28-1.66,10.76-5.05
			c2.46-3.36,4.69-7.49,3.45-11.76c-0.51-1.75-2.77-2.91-4.41-1.79c-3.64,2.48-7.49,6.26-5.67,11.09c0.85,2.26,2.75,4.09,5.25,4.25
			c2.33,0.15,4.33-1.19,5.53-3.12c1.1-1.76,1.41-3.83,1.81-5.82c0.5-2.46,1.11-4.9,1.83-7.31c0.61-2.05,1.31-4.41,2.16-6.14
			c0.37-0.74,0.86-1.57,1.27-1.99c0.58-0.59,0.72-0.63,1.51-0.78c-1.23-1.23-2.46-2.46-3.69-3.69c-1.38,8.77-2.75,17.53-4.1,26.3
			c-0.23,1.48,0.25,2.94,1.74,3.54c1.44,0.58,2.88,0.04,3.75-1.23c4.46-6.55,8.41-13.42,11.82-20.57c-1.83-0.24-3.66-0.48-5.48-0.72
			c-0.18-0.85,0.13-1.44,0.92-1.76c1.27,0.96,2.53,1.93,3.8,2.89c-0.04-2.26-0.08-4.51-0.13-6.77c-0.03-1.48-1.12-2.77-2.6-2.95
			c-1.56-0.19-2.75,0.71-3.29,2.15c-1.58,4.21-3.16,8.42-5.16,12.46c-0.97,1.96-2.01,3.92-3.24,5.73c-0.83,1.23-1.94,2.53-3.25,3.02
			c1.23,1.23,2.46,2.46,3.69,3.69c1.11-6.43,3.91-12.41,8.32-17.23c-1.67-0.97-3.34-1.95-5.01-2.92c-0.71,3.48-2.28,6.59-3.78,9.78
			c-1.61,3.42-2.98,6.84-3.5,10.61c-0.47,3.47-0.3,7.35-1.75,10.6c-1.1,2.47-3.28,4.17-5.75,4.99c-3.08,1.03-6.23,0.88-9.46-0.02
			c-1.75-0.49-3.43-1.16-5.07-1.96c-1.37-0.67-3.14-1.47-4.15-2.39c-0.18-0.16-0.52-0.53-0.57-0.59c-0.1-0.13-0.02-0.37-0.06,0
			c0.06-0.58,0.48-1.08,0.86-1.58c1.11-1.47,2.34-2.87,3.58-4.24c2.64-2.91,5.49-5.62,8.4-8.25c6.93-6.26,14.07-12.29,21.12-18.41
			c-1.67-0.97-3.34-1.95-5.01-2.92c-0.83,3.55-1.65,7.09-2.48,10.64c-0.34,1.45,0.33,2.97,1.74,3.54c1.48,0.59,2.84,0.01,3.75-1.23
			c3.52-4.81,7.1-9.57,10.77-14.27c1.08-1.39,2.82-2.91,2.28-4.85c-0.4-1.44-1.54-2.54-2.93-3.01c-1.17-0.39-2.52-0.35-3.69,0
			c-0.63,0.19-1.24,0.51-1.83,0.81c-0.24,0.12-0.49,0.23-0.72,0.37c-0.27,0.17-0.79-0.01,0.1,0.11c0.73,0.96,1.47,1.93,2.2,2.89
			c-0.16,0.4-0.32,0.81-0.49,1.21c-0.09,0.1-0.19,0.17-0.31,0.22c-0.2,0.29-0.59-0.23-0.07,0.06c-0.44-0.24,0.05,0.13,0.04,0.04
			c0,0.16-0.48-0.39-0.11,0.05c0.7,0.83,1.33,1.75,2.09,2.59c0.83,0.91,1.87,1.59,2.84,2.32c0.28,0.21,0.44,0.34,0.82,0.7
			c0.08,0.08,0.46,0.55,0.25,0.26c0.25,0.35,0.09,0.05,0.18,0.37c0.4,1.38,0.3,2.67,1.06,3.96c0.71,1.2,1.81,2.12,3.07,2.69
			c2.92,1.33,5.94,0.64,8.82-0.41c2.21-0.81,2.84-3.22,1.32-5.01c-2.66-3.17-5.51-6.37-8.71-9c-1.76-1.45-3.62-2.42-5.9-2.72
			c-2.03-0.27-4.13-0.2-6.17-0.06c-4.08,0.28-8.07,1.17-11.63,3.24c-3.03,1.76-5.63,4.17-8.1,6.63c-2.63,2.62-5.19,5.44-8.23,7.53
			c1.37,1.37,2.74,2.74,4.1,4.1c1.1-1.83,2.56-3.37,4.36-4.53c-1.37-1.37-2.74-2.74-4.1-4.1c-1.32,2.6-2.86,5.05-4.62,7.37
			c1.73,1.01,3.45,2.02,5.18,3.03c2.51-4.06,5.52-7.71,9-10.98c-1.57-1.21-3.14-2.42-4.71-3.64c-3.7,5.81-9.64,9.82-14.09,15.01
			c-4.81,5.61-8.57,11.91-11.31,18.77c-0.6,1.5,0.66,3.3,2.1,3.69C139.26,159.39,140.63,158.34,141.24,156.83L141.24,156.83z"/>
	</g>
</g>
<g>
	<g>
		<path d="M66.01,254.33c15.49-5.68,31.76-9.13,48.23-10.1c16.31-0.96,32.74,0.45,48.62,4.29c8.98,2.17,17.78,5.11,26.25,8.81
			c1.75,0.77,3.28-1.82,1.51-2.59c-15.29-6.68-31.5-10.97-48.08-12.8c-16.62-1.83-33.5-1.13-49.94,1.94
			c-9.33,1.74-18.49,4.28-27.4,7.55C63.41,252.1,64.19,255,66.01,254.33L66.01,254.33z"/>
	</g>
</g>
<path class="st2" d="M122.5,241.5c0.5-47.5,0.5-95.5,0-143.63"/>
<g>
	<g>
		<path d="M123.44,240.63c0.07-4.13,0.96-8.19,1.52-12.28c0.61-4.41,0.6-8.84,0.66-13.29c0.11-9.53-0.01-19.05-0.25-28.58
			c-0.48-19.01-1.42-38-1.86-57.01c-0.25-10.7-0.34-21.41-0.12-32.11c0.04-1.93-2.96-1.93-3,0c-0.4,18.94,0.2,37.87,0.89,56.8
			c0.7,19.06,1.47,38.12,1.36,57.19c-0.03,5.08,0.13,10.25-0.47,15.3c-0.55,4.66-1.66,9.27-1.75,13.98
			C120.41,242.56,123.41,242.56,123.44,240.63L123.44,240.63z"/>
	</g>
</g>
<g>
	<g>
		<path d="M125.13,178.04c5.83-2.64,9.8-8.43,10.5-14.73c0.09-0.81-0.75-1.5-1.5-1.5c-0.89,0-1.41,0.69-1.5,1.5
			c-0.58,5.27-4.2,9.96-9.01,12.14c-0.74,0.33-0.92,1.4-0.54,2.05C123.52,178.27,124.39,178.38,125.13,178.04L125.13,178.04z"/>
	</g>
</g>
<g>
	<g>
		<path d="M134.64,159.76c4.04-12.18,11.15-23.24,20.45-32.07c4.59-4.36,9.72-8.2,15.26-11.28c5.27-2.93,12.59-5.69,18.25-2.23
			c3.23,1.98,5.06,5.54,7.48,8.33c2.36,2.71,5.54,4.97,9.28,4.89c-0.35-0.85-0.71-1.71-1.06-2.56c-1.83,2.33-4.56,3.79-7.54,3.86
			c-3.24,0.07-6.45-2.55-9.55-0.59c-1.36,0.86-2.32,2.25-3.27,3.51c-1.08,1.43-2.09,2.92-3.02,4.46c-1.85,3.06-3.38,6.32-4.6,9.69
			c-2.01,5.57-2.67,12.35-6.67,16.96c-4.61,5.31-11.86,4.27-17.76,2.01c-7.53-2.89-14.44-8.17-22.91-7.5c-1.91,0.15-1.93,3.15,0,3
			c7.68-0.61,14.2,4.12,20.98,6.94c5.98,2.49,13.52,4,19.22-0.01c5.18-3.65,6.88-10.02,8.53-15.79c1.98-6.93,4.96-13.49,9.52-19.12
			c0.53-0.66,1.14-1.48,1.96-1.78c0.96-0.36,2.05,0.12,2.97,0.42c1.73,0.58,3.49,0.93,5.32,0.78c3.48-0.3,6.79-1.93,8.95-4.7
			c0.75-0.95,0.36-2.59-1.06-2.56c-3.44,0.08-6.06-2.55-8.04-5.08c-2.15-2.74-4.05-5.72-7.05-7.62c-5.87-3.73-13.3-1.86-19.13,0.92
			c-5.99,2.86-11.54,6.95-16.47,11.37c-4.91,4.4-9.27,9.42-12.99,14.86c-4.23,6.2-7.57,12.99-9.94,20.11
			C131.14,160.8,134.04,161.58,134.64,159.76L134.64,159.76z"/>
	</g>
</g>
<g>
	<g>
		<path d="M134.34,159.16c11.18-0.18,18.72-9.17,25.47-16.91c3.68-4.22,7.64-8.16,12.11-11.55c4.09-3.1,9.09-6.95,14.46-6.99
			c5.57-0.04,9.88,5.16,15.66,3.67c1.87-0.48,1.08-3.37-0.8-2.89c-2.32,0.6-4.56-0.41-6.64-1.37c-2.24-1.03-4.47-2.08-6.95-2.34
			c-5.41-0.57-10.48,2.53-14.73,5.5c-4.43,3.09-8.56,6.62-12.26,10.55c-3.71,3.93-6.98,8.27-10.91,11.99
			c-4.2,3.97-9.46,7.26-15.4,7.35C132.41,156.19,132.41,159.19,134.34,159.16L134.34,159.16z"/>
	</g>
</g>
<g>
	<g>
		<path d="M145.82,157.71c1.91,1.13,3.89,2.3,6.09,2.76c2.08,0.44,4.09,0.1,6.08-0.57c2.23-0.76,4.37-1.74,6.73-2.03
			c2.48-0.31,4.95,0,7.31,0.79c0.92,0.31,1.31-1.14,0.4-1.45c-4.31-1.44-8.6-1.08-12.8,0.49c-2.11,0.79-4.27,1.69-6.58,1.44
			c-2.37-0.26-4.47-1.54-6.48-2.73C145.74,155.92,144.99,157.22,145.82,157.71L145.82,157.71z"/>
	</g>
</g>
<g>
	<g>
		<path d="M146,156.42c0.97,0,0.97-1.5,0-1.5C145.03,154.92,145.03,156.42,146,156.42L146,156.42z"/>
	</g>
</g>
<g>
	<g>
		<path d="M152.58,150.77c6.82,2.6,14.48,2.57,21.27-0.08c0.89-0.35,0.5-1.8-0.4-1.45c-6.58,2.56-13.87,2.59-20.47,0.08
			C152.08,148.98,151.69,150.43,152.58,150.77L152.58,150.77z"/>
	</g>
</g>
<g>
	<g>
		<path d="M159.19,142.26c4.27,1.65,8.6-0.49,11.86-3.24c1.57-1.32,3.07-3.3,5.14-3.83c1.72-0.44,3.67,0.15,4.99-1.35
			c0.63-0.72-0.42-1.79-1.06-1.06c-1.08,1.23-3.35,0.59-4.8,1.11c-1.68,0.61-2.93,1.91-4.22,3.09c-3.09,2.83-7.19,5.49-11.51,3.83
			C158.69,140.47,158.3,141.92,159.19,142.26L159.19,142.26z"/>
	</g>
</g>
<g>
	<g>
		<path d="M175.14,128.18c2.84-2.02,6.17-4.26,9.78-2.97c2.86,1.02,5.23,3.21,8.45,2.72c0.95-0.15,0.55-1.59-0.4-1.45
			c-1.64,0.25-3.18-0.55-4.59-1.28c-1.39-0.72-2.81-1.52-4.37-1.79c-3.59-0.62-6.84,1.48-9.63,3.47
			C173.6,127.44,174.35,128.74,175.14,128.18L175.14,128.18z"/>
	</g>
</g>
<g>
	<g>
		<path d="M167.19,133.5c1.97-0.91,3.94-1.82,5.91-2.72c1.77-0.81,3.58-1.79,5.54-2.02c3.24-0.39,6.54,2.48,9.51,0.03
			c0.74-0.62-0.32-1.67-1.06-1.06c-1.45,1.2-3.49,0.36-5.07-0.09c-1.68-0.47-3.29-0.54-4.99-0.08c-1.76,0.48-3.41,1.34-5.06,2.1
			c-1.85,0.85-3.69,1.7-5.54,2.55C165.56,132.61,166.32,133.9,167.19,133.5L167.19,133.5z"/>
	</g>
</g>
<g>
	<g>
		<path d="M180,135.1c1.53,0.03,3.05-0.37,4.38-1.12c0.34-0.19,0.49-0.69,0.27-1.03c-0.22-0.35-0.66-0.48-1.03-0.27
			c-0.14,0.08-0.29,0.16-0.44,0.23c-0.08,0.04-0.17,0.08-0.26,0.12c-0.16,0.07,0.07-0.02-0.08,0.03c-0.32,0.12-0.64,0.23-0.98,0.32
			c-0.16,0.04-0.32,0.08-0.48,0.11c-0.08,0.02-0.16,0.03-0.24,0.04c-0.09,0.01-0.09,0.01-0.01,0c-0.04,0-0.07,0.01-0.11,0.01
			c-0.34,0.04-0.68,0.05-1.02,0.05c-0.39-0.01-0.77,0.35-0.75,0.75C179.27,134.76,179.58,135.09,180,135.1L180,135.1z"/>
	</g>
</g>
<g>
	<g>
		<path d="M146.62,154.52c-0.39-1.16,0.29-2.26,0.71-3.32c0.4-1.01,0.75-2.05,1.02-3.11c0.5-1.91,0.77-3.86,0.89-5.83
			c0.23-3.84,0.04-8.65,3.56-11.16c0.78-0.55,0.03-1.86-0.76-1.3c-3.61,2.57-4.05,7.02-4.24,11.11c-0.12,2.51-0.37,4.97-1.07,7.4
			c-0.58,2.02-2.28,4.45-1.56,6.59C145.48,155.83,146.93,155.44,146.62,154.52L146.62,154.52z"/>
	</g>
</g>
<g>
	<g>
		<path d="M153.36,147.33c-0.14-4.04,3.1-7.38,4.37-11.06c1.39-4.04,1.65-8.36,3.05-12.4c0.32-0.91-1.13-1.31-1.45-0.4
			c-1.44,4.16-1.67,8.64-3.18,12.78c-1.36,3.72-4.43,6.9-4.28,11.07C151.9,148.3,153.4,148.3,153.36,147.33L153.36,147.33z"/>
	</g>
</g>
<g>
	<g>
		<path d="M160.77,140.31c0.16-2.55,0.87-5.02,2.12-7.25c0.64-1.14,1.42-2.14,2.26-3.14c0.62-0.74,1.23-1.55,1.3-2.55
			c0.08-1.07-0.83-1.98-0.59-3.02c0.25-1.08,1.52-1.92,2.25-2.67c1.58-1.63,2.69-3.62,3.33-5.8c0.27-0.93-1.18-1.32-1.45-0.4
			c-0.74,2.54-2.17,4.33-4,6.16c-0.65,0.65-1.32,1.4-1.58,2.31c-0.34,1.22,0.47,2,0.5,3.13c0.03,1.23-1.26,2.23-1.97,3.16
			c-0.75,0.98-1.39,2.04-1.92,3.16c-1.03,2.18-1.6,4.51-1.76,6.91C159.21,141.28,160.71,141.27,160.77,140.31L160.77,140.31z"/>
	</g>
</g>
<g>
	<g>
		<path d="M174.18,127.41c-0.48-1.92,1.35-3.3,2.77-4.17c1.48-0.91,2.9-1.81,4.09-3.08c2.27-2.42,3.64-5.54,3.93-8.84
			c0.08-0.96-1.42-0.96-1.5,0c-0.3,3.48-2.06,6.77-4.77,8.97c-2.42,1.98-6.97,3.5-5.97,7.51
			C172.97,128.74,174.41,128.35,174.18,127.41L174.18,127.41z"/>
	</g>
</g>
<g>
	<g>
		<path d="M184.07,122.3c1.14-1.31,2.5-2.93,4.34-3.18c1.06-0.14,2.1,0.26,3.16,0.03c0.88-0.19,1.67-0.79,1.91-1.68
			c0.25-0.93-1.2-1.33-1.45-0.4c-0.19,0.74-1.23,0.69-1.81,0.64c-1.02-0.09-1.99-0.19-2.98,0.16c-1.74,0.62-3.05,2-4.23,3.37
			C182.38,121.97,183.44,123.03,184.07,122.3L184.07,122.3z"/>
	</g>
</g>
<g>
	<g>
		<path d="M122.76,175.63c-3.04-1.8-4.61-5.02-5.79-8.22c-1.26-3.39-2.21-6.9-3.91-10.11c-3.5-6.62-9.45-11.86-16.31-14.78
			c-3.94-1.68-8.16-2.58-12.45-2.59c-1.93-0.01-1.93,2.99,0,3c7.29,0.02,14.42,2.91,19.82,7.78c2.71,2.44,4.96,5.33,6.6,8.59
			c1.59,3.16,2.44,6.62,3.73,9.9c1.43,3.61,3.36,7,6.8,9.03C122.91,179.21,124.42,176.61,122.76,175.63L122.76,175.63z"/>
	</g>
</g>
<g>
	<g>
		<path d="M87.1,140.36c10.1-5.69,18.95-13.36,24.1-23.92c4.68-9.6,6.31-20.55,4.64-31.1c-0.47-2.96-1.22-5.87-2.24-8.69
			c-0.89-2.42-3.29-6.03-1.68-8.54c0.83-1.3-0.79-2.77-2.05-2.05c-4.73,2.67-5.12,8.86-9.01,12.36c-2.01,1.82-4.46,3.08-6.78,4.46
			c-2.45,1.45-4.79,3.05-6.74,5.13c-4.13,4.39-6.77,10.16-8.33,15.93c-1.56,5.79-2.02,11.91-1.34,17.88
			c0.76,6.73,2.86,13.23,6.32,19.07c0.98,1.66,3.58,0.15,2.59-1.51c-5.8-9.8-7.63-21.76-5.11-32.86c1.25-5.5,3.49-11.12,7.18-15.46
			c3.61-4.25,8.75-6.12,13.07-9.45c2.29-1.77,3.92-3.91,5.18-6.5c1.14-2.34,2.1-5.09,4.49-6.43c-0.68-0.68-1.37-1.37-2.05-2.05
			c-1.54,2.4-0.88,5.2,0.1,7.68c0.98,2.47,1.94,4.89,2.61,7.47c1.31,5.08,1.72,10.35,1.32,15.58c-0.78,10.29-4.85,20.46-11.78,28.15
			c-4.54,5.04-10.1,8.98-15.98,12.3C83.9,138.72,85.41,141.31,87.1,140.36L87.1,140.36z"/>
	</g>
</g>
<g>
	<g>
		<path d="M84.22,140.12c-8.22-3.92-17.87-2.22-25.39,2.5c-7.69,4.83-13.23,12.21-18.31,19.57c-3.17,4.58-6.23,9.25-9.82,13.52
			c-0.88,1.04-0.08,3.04,1.46,2.51c4.64-1.61,9.17-3.58,13.5-5.91c4.16-2.24,7.98-5.1,12.23-7.15c2.13-1.03,4.41-1.75,6.79-1.9
			c2.4-0.15,4.82,0,7.18-0.58c4.11-1,7.6-3.76,10.14-7.06c3.26-4.23,4.98-9.37,6.55-14.41c0.57-1.85-2.32-2.64-2.89-0.8
			c-2.39,7.7-5.9,17.4-14.78,19.42c-2.34,0.53-4.76,0.24-7.13,0.5c-2.17,0.24-4.22,0.84-6.22,1.71c-4.1,1.77-7.72,4.48-11.59,6.68
			c-4.65,2.65-9.52,4.85-14.57,6.6c0.49,0.84,0.97,1.67,1.46,2.51c5.83-6.95,10.31-14.9,16.02-21.93
			c5.26-6.48,11.78-12.39,20.11-14.35c4.56-1.07,9.48-0.88,13.75,1.16C84.44,143.54,85.96,140.95,84.22,140.12L84.22,140.12z"/>
	</g>
</g>
<g>
	<g>
		<path d="M135.78,162.44c0.08-1.7,0.16-3.41,0.24-5.11c0.04-0.78-0.72-1.54-1.5-1.5c-0.84,0.04-1.46,0.66-1.5,1.5
			c-0.08,1.7-0.16,3.41-0.24,5.11c-0.04,0.78,0.72,1.54,1.5,1.5C135.12,163.9,135.74,163.28,135.78,162.44L135.78,162.44z"/>
	</g>
</g>
<g>
	<g>
		<path d="M83.71,142.02c-3.78,2.67-7.81,4.99-12.04,6.89c-4.37,1.96-9,3.19-13.44,4.98c-4.23,1.71-7.83,4.21-11.36,7.05
			c-3.91,3.15-7.79,6.32-11.69,9.48c-0.75,0.61,0.32,1.66,1.06,1.06c3.89-3.16,7.78-6.33,11.69-9.48c3.71-2.98,7.5-5.48,11.98-7.16
			c4.18-1.57,8.45-2.81,12.52-4.64c4.23-1.9,8.25-4.21,12.04-6.89C85.25,142.76,84.5,141.46,83.71,142.02L83.71,142.02z"/>
	</g>
</g>
<g>
	<g>
		<path d="M86.85,138.2c6.98-16.97,13.19-34.26,18.59-51.8c1.53-4.98,3-9.98,4.4-14.99c0.26-0.93-1.19-1.33-1.45-0.4
			c-4.95,17.67-10.69,35.12-17.24,52.27c-1.86,4.87-3.78,9.71-5.76,14.53C85.03,138.7,86.48,139.09,86.85,138.2L86.85,138.2z"/>
	</g>
</g>
<g>
	<g>
		<path d="M90.32,129.31c7.22-0.73,13.82-5.11,17.2-11.55c0.45-0.85-0.85-1.61-1.3-0.76c-3.12,5.94-9.21,10.13-15.91,10.8
			C89.37,127.91,89.36,129.41,90.32,129.31L90.32,129.31z"/>
	</g>
</g>
<g>
	<g>
		<path d="M94.78,117.93c3.71-0.97,7.54-2.01,10.63-4.38c3.28-2.51,5.69-6.34,7.78-9.85c0.5-0.83-0.8-1.59-1.3-0.76
			c-1.99,3.34-4.27,7.04-7.4,9.42c-2.94,2.24-6.61,3.2-10.12,4.11C93.45,116.73,93.84,118.18,94.78,117.93L94.78,117.93z"/>
	</g>
</g>
<g>
	<g>
		<path d="M98.54,106.36c1.89-0.47,3.7-1.71,5.37-2.67c1.79-1.02,3.53-2.14,5.12-3.44c2.89-2.36,5.27-5.5,6.07-9.19
			c0.21-0.94-1.24-1.34-1.45-0.4c-0.76,3.47-2.98,6.32-5.69,8.53c-1.46,1.19-3.06,2.2-4.7,3.14c-0.83,0.47-1.66,0.93-2.5,1.38
			c-0.85,0.46-1.69,0.97-2.64,1.21C97.21,105.15,97.61,106.59,98.54,106.36L98.54,106.36z"/>
	</g>
</g>
<g>
	<g>
		<path d="M102.77,94.75c5.18-2.89,9.16-7.65,11.13-13.24c0.32-0.91-1.13-1.3-1.45-0.4c-1.84,5.22-5.61,9.65-10.44,12.34
			C101.17,93.93,101.93,95.23,102.77,94.75L102.77,94.75z"/>
	</g>
</g>
<g>
	<g>
		<path d="M106.31,84.02c1.61-0.29,2.74-1.6,3.58-2.92c1.06-1.66,1.98-3.42,2.96-5.13c0.48-0.84-0.81-1.6-1.3-0.76
			c-0.92,1.61-1.82,3.25-2.78,4.84c-0.67,1.1-1.51,2.27-2.86,2.52c-0.4,0.07-0.62,0.56-0.52,0.92
			C105.5,83.92,105.91,84.09,106.31,84.02L106.31,84.02z"/>
	</g>
</g>
<g>
	<g>
		<path d="M106.72,82c-0.19-0.08-0.37-0.19-0.54-0.3c-0.12-0.07,0.06,0.06,0,0c-0.03-0.03-0.07-0.06-0.11-0.09
			c-0.08-0.07-0.15-0.14-0.22-0.22c-0.03-0.03-0.06-0.07-0.09-0.1c-0.02-0.03-0.13-0.18-0.02-0.02c-0.05-0.08-0.11-0.15-0.16-0.23
			c-0.05-0.09-0.11-0.18-0.15-0.27c-0.02-0.04-0.04-0.08-0.06-0.13c-0.08-0.17,0.05,0.15-0.01-0.03c-0.07-0.19-0.13-0.37-0.16-0.57
			c-0.01-0.04-0.03-0.1-0.02-0.14c-0.02,0.16,0.01,0.05,0-0.02c-0.01-0.09-0.01-0.19-0.01-0.28c0-0.1,0.01-0.21,0.01-0.31
			c0.01-0.11-0.02-0.07,0,0c-0.01-0.04,0.02-0.13,0.03-0.17c0.02-0.09,0.04-0.18,0.07-0.27c0.02-0.05,0.04-0.11,0.06-0.16
			c-0.04,0.12-0.02,0.05,0.01-0.03c0.17-0.35,0.11-0.83-0.27-1.03c-0.33-0.18-0.85-0.11-1.03,0.27c-0.46,0.97-0.52,2.09-0.13,3.1
			c0.37,0.98,1.08,1.87,2.06,2.29c0.36,0.15,0.82,0.12,1.03-0.27C107.16,82.7,107.11,82.16,106.72,82L106.72,82z"/>
	</g>
</g>
<g>
	<g>
		<path d="M102.28,91.11c-1.32-0.58-1.65-2.14-1.89-3.42c-0.36-1.95-0.48-3.93-0.41-5.91c0.03-0.97-1.47-0.96-1.5,0
			c-0.08,2.23,0.09,4.47,0.53,6.66c0.31,1.54,0.96,3.29,2.51,3.96c0.37,0.16,0.8,0.11,1.03-0.27
			C102.73,91.82,102.65,91.27,102.28,91.11L102.28,91.11z"/>
	</g>
</g>
<g>
	<g>
		<path d="M98.62,104.83c-1.34-1.09-1.94-2.67-2.47-4.27c-0.55-1.66-0.98-3.37-1.29-5.09c-0.64-3.64-0.7-7.38-0.21-11.04
			c0.13-0.94-1.32-1.35-1.45-0.4c-0.54,3.95-0.49,7.92,0.21,11.84c0.35,1.98,0.86,3.94,1.54,5.83c0.57,1.58,1.27,3.11,2.6,4.19
			C98.3,106.49,99.37,105.43,98.62,104.83L98.62,104.83z"/>
	</g>
</g>
<g>
	<g>
		<path d="M94.61,114.63c-3.18-2.33-4.16-7.04-5.07-10.64c-1.09-4.29-1.72-8.67-1.92-13.09c-0.04-0.96-1.54-0.97-1.5,0
			c0.22,4.86,0.94,9.69,2.2,14.39c1.03,3.82,2.17,8.19,5.52,10.64C94.64,116.49,95.39,115.19,94.61,114.63L94.61,114.63z"/>
	</g>
</g>
<g>
	<g>
		<path d="M90.52,127.8c-2.03-0.46-3.71-2.05-5.12-3.5c-1.43-1.47-2.64-3.13-3.63-4.92c-1.96-3.55-2.97-7.55-2.93-11.6
			c0.01-0.97-1.49-0.97-1.5,0c-0.05,4.42,1.1,8.8,3.29,12.64c1.08,1.88,2.4,3.64,3.93,5.17c1.54,1.55,3.37,3.16,5.55,3.66
			C91.06,129.46,91.47,128.02,90.52,127.8L90.52,127.8z"/>
	</g>
</g>
<g>
	<g>
		<path d="M78.78,147.28c0.36,0.81,0.2,1.83-0.33,2.53c-0.33,0.42-0.81,0.67-1.26,0.94c-0.48,0.29-0.94,0.61-1.33,1.02
			c-1.44,1.49-2,3.73-1.41,5.72c0.27,0.92,1.72,0.53,1.45-0.4c-0.6-2.03,0.35-4.04,2.13-5.09c1-0.59,1.79-1.25,2.21-2.37
			c0.38-1.02,0.29-2.12-0.15-3.1c-0.17-0.37-0.7-0.45-1.03-0.27C78.66,146.47,78.61,146.91,78.78,147.28L78.78,147.28z"/>
	</g>
</g>
<g>
	<g>
		<path d="M71.7,150.11c-1.37,0.87-2.24,2.31-2.61,3.87c-0.45,1.91-0.16,3.88,0.13,5.79c0.06,0.4,0.57,0.62,0.92,0.52
			c0.43-0.12,0.58-0.52,0.52-0.92c-0.39-2.62-0.85-6.3,1.79-7.97C73.27,150.89,72.52,149.59,71.7,150.11L71.7,150.11z"/>
	</g>
</g>
<g>
	<g>
		<path d="M64.64,153.82c-3.11,1.4-4.96,4.56-5.98,7.68c-0.3,0.92,1.15,1.31,1.45,0.4c0.91-2.78,2.52-5.54,5.29-6.78
			c0.37-0.17,0.46-0.7,0.27-1.03C65.45,153.7,65.01,153.65,64.64,153.82L64.64,153.82z"/>
	</g>
</g>
<g>
	<g>
		<path d="M63.87,154.5c0.87-0.24,1.67-0.69,2.34-1.3c0.29-0.26,0.29-0.8,0-1.06c-0.31-0.29-0.75-0.28-1.06,0
			c-0.09,0.08-0.19,0.16-0.29,0.24c0.05-0.04,0.1-0.08,0.15-0.12c-0.34,0.26-0.71,0.48-1.11,0.65c0.06-0.03,0.12-0.05,0.18-0.08
			c-0.2,0.08-0.4,0.15-0.61,0.21c-0.38,0.11-0.65,0.54-0.52,0.92C63.07,154.36,63.46,154.61,63.87,154.5L63.87,154.5z"/>
	</g>
</g>
<g>
	<g>
		<path d="M56.42,154.93c-0.71,2.21-1.49,4.6-3.19,6.27c-0.93,0.9-2.14,1.28-3.17,2.02c-1.06,0.77-1.79,1.97-1.47,3.3
			c0.23,0.94,1.68,0.54,1.45-0.4c-0.31-1.25,1.33-1.97,2.19-2.42c1.05-0.55,1.97-1.24,2.71-2.17c1.46-1.8,2.22-4.03,2.93-6.21
			C58.16,154.41,56.71,154.01,56.42,154.93L56.42,154.93z"/>
	</g>
</g>
<g>
	<g>
		<path d="M47.41,160.7c-1.45,2.53-2.95,5.04-4.48,7.53c-0.51,0.82,0.79,1.58,1.3,0.76c1.54-2.48,3.03-4.99,4.48-7.53
			C49.19,160.62,47.9,159.87,47.41,160.7L47.41,160.7z"/>
	</g>
</g>
<g>
	<g>
		<path d="M50.71,157.58c-0.86-0.61-1.99-0.9-3.04-0.77c-0.21,0.03-0.38,0.07-0.53,0.22c-0.13,0.13-0.23,0.34-0.22,0.53
			c0.01,0.19,0.07,0.4,0.22,0.53c0.14,0.12,0.34,0.24,0.53,0.22c0.33-0.04,0.65-0.04,0.98,0c-0.07-0.01-0.13-0.02-0.2-0.03
			c0.3,0.04,0.58,0.11,0.86,0.22c0.03,0.01,0.05,0.02,0.08,0.03c-0.21-0.08-0.06-0.02-0.02,0c0.06,0.03,0.12,0.06,0.18,0.09
			c0.14,0.07,0.27,0.16,0.4,0.25c0.15,0.11,0.41,0.12,0.58,0.08c0.17-0.05,0.36-0.18,0.45-0.34
			C51.18,158.22,51.05,157.82,50.71,157.58L50.71,157.58z"/>
	</g>
</g>
<g>
	<g>
		<path d="M58.24,154.52c-2.1-1.09-4.28-2.05-6.51-2.83c-1.02-0.36-2.17-0.68-3.24-0.35c-0.93,0.29-1.76,1.01-1.91,2.01
			c-0.06,0.4,0.1,0.8,0.52,0.92c0.36,0.1,0.86-0.12,0.92-0.52c0.31-1.94,3.19-0.67,4.24-0.27c1.79,0.67,3.53,1.46,5.23,2.34
			C58.34,156.26,59.1,154.97,58.24,154.52L58.24,154.52z"/>
	</g>
</g>
<g>
	<g>
		<path d="M62.81,153.15c0.71,0.16,1.38,0.07,2.02-0.27c0.41-0.22,0.5-0.86,0.15-1.18c-1.4-1.27-2.93-2.41-4.57-3.37
			c-0.4-0.23-0.81-0.46-1.22-0.67c-0.42-0.22-0.87-0.47-1.33-0.57c-1-0.2-1.94,0.32-2.05,1.37c-0.04,0.4,0.38,0.75,0.75,0.75
			c0.44,0,0.71-0.35,0.75-0.75c-0.02,0.16-0.05,0.09,0.01,0.08c0.12-0.02,0.22,0,0.35,0.04c0.33,0.11,0.65,0.3,0.96,0.46
			c0.64,0.34,1.26,0.7,1.86,1.08c1.22,0.78,2.36,1.65,3.44,2.62c0.05-0.39,0.1-0.79,0.15-1.18c-0.27,0.14-0.57,0.18-0.87,0.11
			C62.26,151.49,61.86,152.93,62.81,153.15L62.81,153.15z"/>
	</g>
</g>
<g>
	<g>
		<path d="M72.75,150.18c0.72-2.49-0.81-4.81-2.71-6.27c-2.1-1.62-4.59-2.8-7.05-3.78c-0.38-0.15-0.82,0.16-0.92,0.52
			c-0.12,0.43,0.15,0.77,0.52,0.92c2.15,0.85,4.29,1.91,6.18,3.25c1.56,1.1,3.12,2.9,2.53,4.95
			C71.04,150.71,72.49,151.1,72.75,150.18L72.75,150.18z"/>
	</g>
</g>
<g>
	<g>
		<path d="M78.89,146.01c-0.73-3.09-2.73-5.8-5.44-7.44c-0.83-0.5-1.58,0.8-0.76,1.3c2.39,1.45,4.11,3.83,4.75,6.55
			C77.67,147.35,79.11,146.95,78.89,146.01L78.89,146.01z"/>
	</g>
</g>
<g>
	<g>
		<path d="M123.58,96.91c-0.21-5.17,0.46-10.29,1.96-15.24c0.56-1.85-2.33-2.64-2.89-0.8c-1.58,5.18-2.29,10.62-2.07,16.04
			C120.66,98.84,123.66,98.85,123.58,96.91L123.58,96.91z"/>
	</g>
</g>
<g>
	<g>
		<path d="M151.65,30.8c-10.29,2.19-19.21,9.13-24.53,18.13c-6.08,10.29-7.3,22.84-4.84,34.4c1.51,7.06,4.16,13.94,4.11,21.25
			c-0.01,1.69,2.49,2.03,2.95,0.4c1.63-5.87,4.95-11.14,9.53-15.15c4.83-4.23,11.23-5.99,16.07-10.19c4.46-3.87,7.1-9.44,8.48-15.09
			c1.49-6.11,1.93-12.77,1.02-18.99c-1-6.86-4.51-13.74-11.01-16.83c-1.74-0.82-3.26,1.76-1.51,2.59c5.55,2.63,8.48,8.28,9.49,14.12
			c1.03,5.99,0.54,12.6-0.92,18.49c-1.33,5.36-3.84,10.56-8.24,14.06c-2.47,1.97-5.4,3.3-8.18,4.78c-2.73,1.45-5.3,3.12-7.61,5.19
			c-4.8,4.31-8.29,10.01-10.02,16.22c0.98,0.13,1.96,0.27,2.95,0.4c0.05-6.17-1.72-12.09-3.25-18c-1.44-5.61-2.33-11.23-2.02-17.04
			c0.58-10.8,5.08-21.22,13.32-28.35c4.29-3.71,9.45-6.32,15-7.5C154.34,33.29,153.54,30.4,151.65,30.8L151.65,30.8z"/>
	</g>
</g>
<g>
	<g>
		<path d="M152.27,32c-0.05,4.75-0.77,9.46-2.17,14c-1.4,4.54-3.56,8.72-5.98,12.8c-2.42,4.07-4.88,8.09-6.99,12.32
			c-2.02,4.05-3.8,8.21-5.34,12.46c-1.8,4.98-3.24,10.07-4.35,15.25c-0.2,0.94,1.24,1.34,1.45,0.4c2-9.33,5.11-18.39,9.34-26.95
			c4.14-8.37,10-15.9,12.98-24.81c1.67-4.99,2.51-10.22,2.57-15.47C153.78,31.04,152.28,31.04,152.27,32L152.27,32z"/>
	</g>
</g>
<g>
	<g>
		<path d="M152.96,37.13c1.75,0.87,2.35,3.05,2.73,4.82c0.42,1.98,0.48,4.01,0.6,6.02c0.21,3.44,0.64,7.04,2.76,9.88
			c0.57,0.76,1.87,0.02,1.3-0.76c-2.46-3.3-2.43-7.48-2.7-11.4c-0.22-3.24-0.59-8.21-3.93-9.86
			C152.86,35.4,152.09,36.7,152.96,37.13L152.96,37.13z"/>
	</g>
</g>
<g>
	<g>
		<path d="M159.06,57.6c0.57,1.27,1.48,2.34,2.59,3.18c0.15,0.11,0.41,0.12,0.58,0.08c0.17-0.05,0.36-0.18,0.45-0.34
			c0.09-0.17,0.14-0.38,0.08-0.58c-0.06-0.2-0.18-0.32-0.34-0.45c-0.02-0.02-0.13-0.1-0.04-0.03c0.1,0.08-0.03-0.02-0.04-0.03
			c-0.06-0.04-0.11-0.09-0.16-0.14c-0.11-0.1-0.23-0.2-0.33-0.3c-0.22-0.22-0.43-0.45-0.62-0.69c-0.01-0.02-0.08-0.11-0.01-0.02
			c0.07,0.1-0.01-0.02-0.03-0.04c-0.05-0.06-0.09-0.13-0.14-0.19c-0.09-0.12-0.17-0.25-0.25-0.38c-0.16-0.26-0.3-0.54-0.43-0.82
			c-0.07-0.16-0.29-0.3-0.45-0.34c-0.18-0.05-0.42-0.03-0.58,0.08c-0.16,0.1-0.3,0.26-0.34,0.45
			C158.93,57.23,158.97,57.41,159.06,57.6L159.06,57.6z"/>
	</g>
</g>
<g>
	<g>
		<path d="M149.97,45.14c2.99,5.45,1.01,11.84,1.11,17.69c0.07,4.49,1.67,10.41,6.92,11.09c0.95,0.12,0.95-1.38,0-1.5
			c-2.39-0.31-3.98-2.54-4.69-4.67c-0.93-2.77-0.81-5.77-0.59-8.64c0.37-4.97,1.05-10.16-1.45-14.72
			C150.81,43.54,149.51,44.29,149.97,45.14L149.97,45.14z"/>
	</g>
</g>
<g>
	<g>
		<path d="M145.14,59.11c1.87,1.4,2.12,4.28,2.16,6.42c0.04,2.4-0.48,4.66-1.21,6.93c-1.18,3.68-2.3,7.79,0.34,11.12
			c0.6,0.76,1.65-0.31,1.06-1.06c-3.13-3.95,0.4-9.43,1.07-13.62c0.57-3.59,0.55-8.69-2.66-11.1
			C145.13,57.24,144.38,58.54,145.14,59.11L145.14,59.11z"/>
	</g>
</g>
<g>
	<g>
		<path d="M138.15,72.85c1.93,0.8,2.58,3.1,2.54,5c-0.04,2.48-1.07,4.85-0.9,7.34c0.06,0.96,1.56,0.97,1.5,0
			c-0.19-2.9,1.18-5.66,0.84-8.59c-0.26-2.24-1.44-4.31-3.59-5.19C137.66,71.04,137.27,72.49,138.15,72.85L138.15,72.85z"/>
	</g>
</g>
<g>
	<g>
		<path d="M133.47,81.92c2.3,1.49,1.93,4.76,1.66,7.08c-0.05,0.4,0.38,0.75,0.75,0.75c0.44,0,0.7-0.35,0.75-0.75
			c0.19-1.65,0.37-3.36-0.06-4.99c-0.36-1.37-1.14-2.61-2.34-3.39C133.42,80.09,132.66,81.39,133.47,81.92L133.47,81.92z"/>
	</g>
</g>
<g>
	<g>
		<path d="M134.46,80.55c-1.45-1.42-3.68-0.63-4.85,0.72c-0.64,0.74-1.11,1.59-1.69,2.37c-0.59,0.79-1.33,1.46-2.15,2
			c-0.8,0.53-0.05,1.83,0.76,1.3c0.76-0.5,1.46-1.09,2.07-1.77c0.6-0.68,1.07-1.45,1.58-2.19c0.41-0.6,0.89-1.22,1.58-1.51
			c0.53-0.23,1.21-0.29,1.64,0.14C134.09,82.28,135.15,81.22,134.46,80.55L134.46,80.55z"/>
	</g>
</g>
<g>
	<g>
		<path d="M136.87,70.93c-3-0.67-6.01,0.69-8.06,2.86c-1.06,1.13-1.91,2.44-2.62,3.81c-0.66,1.26-1.09,2.93-2.24,3.84
			c-0.76,0.6,0.31,1.65,1.06,1.06c1.08-0.85,1.52-2.21,2.1-3.4c0.62-1.27,1.32-2.54,2.22-3.63c1.71-2.08,4.36-3.72,7.14-3.1
			C137.41,72.59,137.82,71.14,136.87,70.93L136.87,70.93z"/>
	</g>
</g>
<g>
	<g>
		<path d="M145.7,57.15c-2.09-0.69-4.59-2.05-6.79-1.19c-1.97,0.77-3.53,2.37-4.82,3.99c-2.62,3.31-5.83,9.27-11,7.53
			c-0.92-0.31-1.31,1.14-0.4,1.45c4.48,1.51,8.15-2.07,10.58-5.36c1.36-1.85,2.65-3.85,4.51-5.25c1.1-0.82,2.25-1.39,3.63-1
			c1.31,0.37,2.6,0.85,3.89,1.27C146.22,58.9,146.61,57.45,145.7,57.15L145.7,57.15z"/>
	</g>
</g>
<g>
	<g>
		<path d="M150.89,44.21c-2.33-0.35-4.38,0.54-6.3,1.79c-2.22,1.43-4.31,3.09-6.23,4.9c-1.66,1.56-3.18,3.51-5.28,4.5
			c-2.79,1.32-5.61-0.25-8.01-1.66c-0.83-0.49-1.59,0.81-0.76,1.3c2.1,1.24,4.44,2.55,6.97,2.37c2.2-0.16,4.01-1.46,5.56-2.92
			c1.92-1.8,3.71-3.67,5.8-5.28c2.14-1.65,4.96-3.99,7.85-3.55C151.43,45.8,151.84,44.35,150.89,44.21L150.89,44.21z"/>
	</g>
</g>
<g>
	<g>
		<path d="M152.36,36.39c-2.44-1.25-5.05,0.42-7.21,1.52c-2.39,1.22-4.89,2.43-7.65,2.17c-0.96-0.09-0.95,1.41,0,1.5
			c2.49,0.24,4.85-0.63,7.06-1.7c1.13-0.54,2.23-1.14,3.36-1.69c1.1-0.53,2.5-1.12,3.68-0.51
			C152.46,38.12,153.22,36.83,152.36,36.39L152.36,36.39z"/>
	</g>
</g>
<g>
	<g>
		<path d="M66.51,251.73c-2.32-0.42-3.79,1.41-4.18,3.54c-0.43,2.41,0.13,5.22,1.23,7.38c2.31,4.56,7.59,5.99,10.73,9.73
			c1.52,1.81,2.39,4.07,1.16,6.26c-1.18,2.11-2.69,4-2.02,6.58c1.28,4.93,7.86,6.79,12.19,7.63c5.07,0.98,10.33,1.1,15.2,2.97
			c2.24,0.86,4.35,2.17,5.89,4.03c1.62,1.95,2.48,4.4,3.06,6.84c1.24,5.22,1.18,10.72,3.51,15.65c1.96,4.15,6.25,7.88,11.09,7.5
			c5.65-0.44,10.19-5.53,12.13-10.51c0.93-2.38,0.99-5.49,3.39-6.95c1.87-1.13,4.2-1.02,5.95,0.27c0.49,0.36,1.43,0.23,1.82-0.23
			c4.34-5.23,3.11-13.67-2.7-17.31c0.18,0.68,0.36,1.37,0.54,2.05c1.85-2.91,7.29,1.8,8.91,3.03c1.51,1.15,2.94,2.39,4.3,3.71
			c1.2,1.16,2.27,2.49,3.61,3.5c1.29,0.97,2.88,1.45,4.44,0.85c1.54-0.59,2.77-2.03,3.83-3.25c2.26-2.62,4.2-5.93,3.52-9.51
			c-0.33-1.71-1.45-2.98-2.12-4.53c-0.71-1.64-0.03-3.23,1.07-4.52c2.14-2.51,5.39-3.7,7.63-6.1c1.07-1.15,1.91-2.54,2.23-4.09
			c0.36-1.73,0.17-3.47,0.2-5.22c0.02-1.5,0.28-2.98,1.54-3.95c1.09-0.85,2.51-1.2,3.81-1.59c2.95-0.87,7.25-2.25,7.15-6.06
			c-0.09-3.45-3.98-4.93-6.84-5.4c-1.89-0.31-2.7,2.58-0.8,2.89c1.59,0.26,6.58,1.66,3.86,3.95c-2.01,1.7-5.16,1.81-7.5,2.92
			c-2.94,1.4-4.17,4.07-4.21,7.23c-0.02,1.46,0.19,2.97-0.09,4.42c-0.3,1.57-1.3,2.75-2.5,3.75c-2.46,2.07-5.39,3.37-7.32,6.05
			c-0.82,1.13-1.4,2.45-1.51,3.85c-0.14,1.79,0.62,3.29,1.49,4.79c0.85,1.46,1.33,2.8,0.89,4.49c-0.42,1.62-1.4,3.08-2.47,4.34
			c-0.71,0.84-2.15,2.9-3.4,2.82c-1.43-0.09-2.83-2.24-3.75-3.15c-2.74-2.74-5.81-5.19-9.09-7.25c-2.95-1.85-7.2-3.02-9.45,0.52
			c-0.44,0.7-0.13,1.63,0.54,2.05c4.06,2.55,5.18,8.87,2.09,12.6c0.61-0.08,1.21-0.16,1.82-0.23c-3.13-2.32-7.94-1.8-10.6,1.01
			c-1.61,1.7-2.03,3.96-2.69,6.13c-0.7,2.3-1.93,4.42-3.6,6.16c-1.6,1.67-3.72,3.25-6.1,3.47c-2.21,0.21-4.3-0.83-5.87-2.32
			c-3.7-3.52-4.27-8.92-4.96-13.71c-0.68-4.75-1.65-9.69-4.95-13.37c-3.12-3.47-7.76-5.09-12.22-5.95
			c-4.81-0.93-9.8-1.05-14.45-2.73c-1.99-0.72-4.83-1.95-5.54-4.16c-0.65-2.05,1.75-4.14,2.38-5.98c1.82-5.36-3.25-9.64-7.13-12.29
			c-2.03-1.38-4.18-2.8-5.37-5.02c-0.65-1.22-0.94-2.62-1.01-3.99c-0.03-0.59-0.06-1.17,0.09-1.74c0.07-0.28,0.44-0.96,0.38-0.97
			C67.6,254.96,68.41,252.07,66.51,251.73L66.51,251.73z"/>
	</g>
</g>
<g>
	<g>
		<path d="M106.82,300.31c-1.35,3.46-0.44,7.09-0.06,10.63c0.41,3.79-0.25,7.42-2.7,10.45c-0.6,0.74,0.45,1.81,1.06,1.06
			c2.31-2.86,3.45-6.33,3.26-10c-0.2-3.9-1.6-7.93-0.12-11.73C108.62,299.81,107.17,299.42,106.82,300.31L106.82,300.31z"/>
	</g>
</g>
<g>
	<g>
		<path d="M93.98,294.53c1.07,0.83-1.32,2.08-1.84,2.42c-1.18,0.77-2.4,1.51-3.53,2.36c-0.99,0.75-1.83,1.64-2.25,2.83
			c-0.48,1.34-0.33,2.81-0.16,4.19c0.12,0.95,1.62,0.96,1.5,0c-0.17-1.42-0.4-3.04,0.37-4.33c0.71-1.19,2.03-1.92,3.16-2.66
			c0.65-0.43,1.31-0.86,1.96-1.29c0.59-0.39,1.24-0.76,1.74-1.27c0.86-0.87,1.21-2.47,0.12-3.32c-0.32-0.25-0.75-0.31-1.06,0
			C93.72,293.72,93.66,294.28,93.98,294.53L93.98,294.53z"/>
	</g>
</g>
<g>
	<g>
		<path d="M88.18,300.16c-0.8-0.68-1.83-0.89-2.85-0.67c-0.92,0.2-1.81,0.81-2.21,1.68c-0.16,0.36-0.11,0.82,0.27,1.03
			c0.33,0.18,0.85,0.11,1.03-0.27c0.04-0.08,0.08-0.17,0.13-0.25c0.02-0.04,0.05-0.08,0.08-0.12c0.07-0.11-0.08,0.09-0.02,0.02
			c0.06-0.06,0.11-0.13,0.17-0.18c0.03-0.03,0.07-0.06,0.1-0.09c0.12-0.11-0.14,0.09-0.01,0c0.14-0.1,0.29-0.18,0.44-0.26
			c0.15-0.07-0.16,0.06-0.01,0c0.04-0.02,0.09-0.03,0.13-0.05c0.08-0.03,0.16-0.05,0.25-0.07c0.04-0.01,0.08-0.02,0.11-0.02
			c0.02,0,0.05-0.01,0.07-0.01c0.06-0.01,0.03-0.01-0.08,0.01c0.07,0.01,0.18-0.02,0.26-0.02c0.09,0,0.17,0,0.26,0.01
			c0.04,0,0.1,0.02,0.14,0.01c-0.16,0.02-0.1-0.01-0.02,0c0.08,0.02,0.16,0.04,0.25,0.06c0.04,0.01,0.09,0.03,0.13,0.04
			c0.14,0.05-0.02,0.02-0.03-0.01c0.02,0.04,0.2,0.1,0.24,0.13c0.04,0.02,0.08,0.05,0.12,0.08c0.12,0.08-0.12-0.1,0,0
			c0.3,0.25,0.77,0.32,1.06,0C88.44,300.94,88.5,300.43,88.18,300.16L88.18,300.16z"/>
	</g>
</g>
<g>
	<g>
		<path d="M88.17,300.8c0.73,0.22,1.45,0.43,2.18,0.65c0.75,0.22,1.53,0.51,2.33,0.42c0.67-0.08,1.26-0.42,1.91-0.6
			c0.69-0.19,1.38-0.24,2.09-0.17c0.4,0.04,0.75-0.37,0.75-0.75c0-0.44-0.34-0.71-0.75-0.75c-0.71-0.06-1.43-0.02-2.12,0.14
			c-0.64,0.14-1.21,0.45-1.83,0.62c-0.65,0.17-1.35-0.16-1.97-0.35c-0.73-0.22-1.45-0.43-2.18-0.65
			C87.64,299.08,87.24,300.53,88.17,300.8L88.17,300.8z"/>
	</g>
</g>
<g>
	<g>
		<path d="M123.61,330.4c0.73,0.66,0.94,1.63,0.64,2.53c-0.05,0.15-0.03,0.1-0.11,0.25c-0.06,0.12-0.14,0.23-0.22,0.34
			c-0.2,0.28-0.39,0.55-0.49,0.89c-0.23,0.74,0.14,1.59,0.9,1.81c0.39,0.11,0.82-0.14,0.92-0.52c0.11-0.39-0.13-0.81-0.52-0.92
			c0.05,0.01,0.08,0.06,0.12,0.09c0.05,0.05,0.03,0.11,0.01,0.01c0.03,0.13-0.01-0.01,0-0.05c0-0.06,0-0.05,0,0.03
			c0.01-0.03,0.02-0.06,0.03-0.08c0.1-0.13,0.3-0.43,0.43-0.63c0.33-0.5,0.49-1.09,0.55-1.68c0.11-1.14-0.34-2.35-1.19-3.11
			c-0.3-0.27-0.76-0.3-1.06,0C123.34,329.62,123.31,330.13,123.61,330.4L123.61,330.4z"/>
	</g>
</g>
<g>
	<g>
		<path d="M137.11,317.46c0.87,0.22,1.77,0.43,2.52,0.94c0.92,0.61,1.2,1.59,1.13,2.65c-0.07,1.06-0.47,2.08-0.67,3.12
			c-0.22,1.1-0.23,2.21-0.09,3.32c0.2,1.63,0.35,4.1,1.91,5.07c1.77,1.1,4.41,1.21,6.41,0.99c0.95-0.1,0.96-1.6,0-1.5
			c-1.12,0.12-2.26,0.12-3.37-0.08c-0.92-0.17-2.33-0.35-2.77-1.3c-0.4-0.87-0.51-1.99-0.65-2.93c-0.18-1.21-0.19-2.4,0.09-3.59
			c0.43-1.84,1.12-3.85,0.12-5.64c-0.86-1.54-2.64-2.09-4.24-2.49C136.57,315.78,136.17,317.22,137.11,317.46L137.11,317.46z"/>
	</g>
</g>
<g>
	<g>
		<path d="M141.47,324.09c0.83,0.34,1.72,0.72,2.41,1.32c0.33,0.29,0.62,0.62,0.8,1.03c0.19,0.41,0.26,0.87,0.42,1.3
			c0.41,1.07,1.33,1.79,2.52,1.67c1.19-0.12,2.03-0.92,2.73-1.83c0.25-0.32,0.05-0.84-0.27-1.03c-0.39-0.23-0.78-0.05-1.03,0.27
			c-0.44,0.57-1.2,1.33-2,1.05c-0.34-0.12-0.48-0.43-0.59-0.75c-0.14-0.43-0.24-0.87-0.42-1.28c-0.75-1.71-2.55-2.52-4.18-3.19
			c-0.37-0.15-0.82,0.17-0.92,0.52C140.82,323.6,141.09,323.93,141.47,324.09L141.47,324.09z"/>
	</g>
</g>
<g>
	<g>
		<path d="M147.33,312.99c0.83,0.28,1.69,0.58,2.56,0.73c0.76,0.13,1.63,0.1,2.15-0.55c0.14-0.17,0.23-0.36,0.29-0.57
			c0.06-0.19,0.04-0.4,0.12-0.58c0.06-0.15,0.26-0.26,0.45-0.32c0.77-0.25,1.56-0.17,2.28-0.58c0.84-0.48,0.08-1.78-0.76-1.3
			c-0.58,0.33-1.3,0.23-1.93,0.43c-0.72,0.23-1.36,0.72-1.53,1.49c-0.03,0.14-0.02,0.41-0.1,0.52c0.02-0.02-0.03,0-0.05,0.01
			c-0.13,0.02-0.43,0.03-0.62,0c-0.83-0.15-1.66-0.44-2.46-0.71c-0.38-0.13-0.82,0.15-0.92,0.52
			C146.69,312.47,146.94,312.85,147.33,312.99L147.33,312.99z"/>
	</g>
</g>
<g>
	<g>
		<path d="M154.34,299.35c-1.3,1.13-1.44,3.28-0.42,4.64c0.28,0.37,0.62,0.65,1.01,0.89c0.26,0.16,0.69,0.34,0.81,0.62
			c0.11,0.25-0.01,0.73,0.01,1.05c0.03,0.56,0.23,0.98,0.69,1.3c0.33,0.24,0.83,0.06,1.03-0.27c0.22-0.38,0.06-0.79-0.27-1.03
			c0.1,0.07,0.06,0.1,0.05-0.06c-0.01-0.18,0.01-0.36,0.02-0.53c0.02-0.42-0.03-0.85-0.23-1.22c-0.38-0.7-1.18-0.93-1.7-1.4
			c-0.84-0.76-0.79-2.19,0.06-2.93c0.31-0.27,0.27-0.79,0-1.06C155.1,299.05,154.64,299.08,154.34,299.35L154.34,299.35z"/>
	</g>
</g>
<g>
	<g>
		<path d="M167.28,306.98c-0.14-0.11,0.13,0.14,0.06,0.07c-0.06-0.06,0.02,0.04,0.03,0.05c0.02,0.04,0.04,0.07,0.06,0.11
			c0.03,0.06,0.06,0.12,0.02,0.02c0.02,0.04,0.03,0.08,0.04,0.12c0.03,0.09,0.05,0.19,0.07,0.28c0.01,0.04,0.02,0.09,0.02,0.13
			c0.02,0.12-0.01-0.18,0,0.03c0.01,0.09,0.01,0.18,0.02,0.27c0.01,0.2,0,0.4-0.02,0.61c-0.06,0.92-0.1,1.91,0.45,2.71
			c0.22,0.32,0.67,0.5,1.03,0.27c0.32-0.21,0.51-0.68,0.27-1.03c-0.06-0.09-0.12-0.18-0.16-0.28c-0.03-0.07,0.02,0.08-0.02-0.05
			c-0.01-0.05-0.03-0.09-0.04-0.14c-0.01-0.06-0.03-0.12-0.04-0.17c-0.02-0.13,0.01,0.17-0.01-0.05c-0.01-0.11-0.02-0.22-0.02-0.33
			c-0.01-0.45,0.05-0.89,0.06-1.33c0.01-0.44-0.03-0.9-0.17-1.32c-0.17-0.53-0.47-0.93-0.91-1.27c-0.31-0.24-0.85-0.06-1.03,0.27
			C166.8,306.34,166.95,306.72,167.28,306.98L167.28,306.98z"/>
	</g>
</g>
<g>
	<g>
		<path d="M172.54,299.27c0.61-0.14,1.22-0.28,1.83-0.42c0.48-0.11,1.02-0.31,1.53-0.26c0.42,0.04,0.57,0.39,0.74,0.73
			c0.27,0.56,0.53,1.13,0.79,1.69c0.42,0.91,0.78,2.06,1.57,2.72c0.75,0.63,2.03,0.79,2.7-0.05c0.25-0.32,0.31-0.75,0-1.06
			c-0.26-0.26-0.81-0.32-1.06,0c-0.51,0.64-1.14-0.71-1.3-1.04c-0.49-1.04-0.94-2.1-1.46-3.13c-0.46-0.92-1.28-1.45-2.33-1.35
			c-1.14,0.1-2.28,0.47-3.4,0.73C171.2,298.04,171.6,299.49,172.54,299.27L172.54,299.27z"/>
	</g>
</g>
<g>
	<g>
		<path d="M175.62,283.89c0.91,0.85,1.39,2.05,1.29,3.3c-0.11,1.45-1.18,2.65-1,4.15c0.05,0.4,0.31,0.75,0.75,0.75
			c0.37,0,0.8-0.35,0.75-0.75c-0.1-0.8,0.23-1.51,0.52-2.24c0.29-0.73,0.49-1.47,0.49-2.26c0-1.5-0.64-2.98-1.74-4
			C175.97,282.17,174.91,283.23,175.62,283.89L175.62,283.89z"/>
	</g>
</g>
<g>
	<g>
		<path d="M76.89,290.64c1.04,0.81,1.64,2.05,1.54,3.38c-0.11,1.47-1.18,2.53-2.21,3.47c-1.09,1-2.13,2.01-2.99,3.23
			c-0.85,1.21-1.83,2.75-1.76,4.28c0.04,0.96,1.54,0.97,1.5,0c-0.04-0.86,0.41-1.64,0.82-2.37c0.44-0.77,0.95-1.51,1.54-2.18
			c1.05-1.2,2.37-2.13,3.36-3.38c1.79-2.27,1.61-5.67-0.75-7.5C77.19,289,76.13,290.05,76.89,290.64L76.89,290.64z"/>
	</g>
</g>
<g>
	<g>
		<path d="M76.28,298.31c-0.3,0.94-0.58,2-0.29,2.99c0.29,0.98,1.09,1.5,1.76,2.21c1.25,1.34,1.83,3.17,1.68,4.98
			c-0.08,0.96,1.42,0.96,1.5,0c0.15-1.81-0.36-3.69-1.42-5.18c-0.26-0.36-0.55-0.71-0.86-1.03c-0.31-0.31-0.67-0.56-0.95-0.9
			c-0.62-0.76-0.23-1.84,0.03-2.67C78.02,297.78,76.57,297.39,76.28,298.31L76.28,298.31z"/>
	</g>
</g>
<g>
	<g>
		<path d="M105.67,308.18c0.42,1.06,0.46,2.24-0.02,3.3c-0.44,0.96-1.23,1.71-2.11,2.28c-1.67,1.1-4.01,1.58-4.74,3.67
			c-0.32,0.91,1.13,1.31,1.45,0.4c0.32-0.91,1.36-1.36,2.16-1.75c1.03-0.5,2.02-1.03,2.89-1.77c1.89-1.6,2.74-4.17,1.81-6.53
			c-0.15-0.38-0.5-0.64-0.92-0.52C105.84,307.36,105.52,307.8,105.67,308.18L105.67,308.18z"/>
	</g>
</g>
<g>
	<g>
		<path d="M74.47,277.43c-0.52,1.93-1.74,3.41-3.46,4.41c-1.42,0.82-3.06,1.57-3.66,3.22c-0.38,1.02-0.17,2.11-0.31,3.17
			c-0.13,0.99-0.5,1.92-1,2.78c-1.03,1.78-2.54,3.23-4.02,4.63c-0.7,0.66,0.36,1.72,1.06,1.06c1.47-1.39,2.94-2.84,4.03-4.57
			c0.54-0.85,0.98-1.79,1.23-2.77c0.28-1.08,0.15-2.14,0.29-3.23c0.27-2.01,2.72-2.6,4.13-3.65c1.56-1.15,2.65-2.79,3.15-4.66
			C76.16,276.9,74.72,276.5,74.47,277.43L74.47,277.43z"/>
	</g>
</g>
<g>
	<g>
		<path d="M75.29,275.96c-0.51,0.57-0.88,1.21-1.12,1.94c-0.13,0.38,0.15,0.82,0.52,0.92c0.43,0.12,0.77-0.15,0.92-0.52
			c0.77-1.91,1.32-3.89,1.66-5.92c0.07-0.4-0.1-0.81-0.52-0.92c-0.36-0.1-0.86,0.12-0.92,0.52c-0.34,2.03-0.89,4.01-1.66,5.92
			c0.48,0.13,0.96,0.27,1.45,0.4c0.16-0.47,0.4-0.9,0.73-1.28c0.27-0.3,0.3-0.76,0-1.06C76.08,275.69,75.56,275.65,75.29,275.96
			L75.29,275.96z"/>
	</g>
</g>
<g>
	<g>
		<path d="M179.93,279.14c0.23,0.13,0.38,0.32,0.48,0.57c0.13,0.35,0.2,0.72,0.27,1.09c0.15,0.82,0.33,1.68,0.9,2.32
			c0.77,0.86,1.97,0.9,3.01,0.62c1.2-0.32,2.35-0.91,3.49-1.39c0.37-0.16,0.64-0.5,0.52-0.92c-0.1-0.35-0.55-0.68-0.92-0.52
			c-1.09,0.45-2.18,0.99-3.32,1.34c-0.39,0.12-0.82,0.23-1.23,0.13c-0.36-0.09-0.51-0.29-0.65-0.57c-0.27-0.51-0.34-1.37-0.49-2.01
			c-0.19-0.79-0.56-1.55-1.31-1.95C179.84,277.38,179.08,278.68,179.93,279.14L179.93,279.14z"/>
	</g>
</g>
<g>
	<g>
		<path d="M182.41,283.68c0.11,0.07-0.01-0.03,0.03,0.03c0.01,0.02,0.12,0.14,0.04,0.03c0.03,0.04,0.05,0.07,0.07,0.11
			c0,0,0.09,0.17,0.06,0.09c-0.04-0.08,0.03,0.09,0.04,0.1c0.02,0.05,0.03,0.11,0.05,0.17c0.01,0.06,0.03,0.11,0.03,0.17
			c-0.01-0.08,0,0.04,0,0.05c0.03,0.54-0.05,1.07,0,1.61c0.05,0.6,0.22,1.15,0.62,1.61c0.35,0.41,0.92,0.68,1.47,0.64
			c0.39-0.03,0.77-0.32,0.75-0.75c-0.02-0.38-0.33-0.78-0.75-0.75c-0.02,0-0.2,0.02-0.09,0.01c0.08,0-0.03-0.01-0.06-0.01
			c-0.07-0.02-0.12-0.06-0.03-0.01c-0.04-0.02-0.07-0.04-0.11-0.07c0.09,0.05,0.02,0.02-0.03-0.03c-0.03-0.03-0.06-0.06-0.09-0.1
			c-0.05-0.05,0.04,0.08-0.02-0.03c-0.02-0.04-0.05-0.08-0.07-0.12c0.05,0.1-0.01-0.04-0.02-0.07c-0.01-0.05-0.03-0.1-0.04-0.15
			c-0.01-0.06-0.03-0.12-0.04-0.19c0.01,0.08,0,0.02,0-0.03c-0.01-0.25-0.01-0.5,0-0.76c0.04-1.09-0.08-2.2-1.05-2.86
			c-0.33-0.22-0.85-0.07-1.03,0.27C181.94,283.03,182.06,283.45,182.41,283.68L182.41,283.68z"/>
	</g>
</g>
<g>
	<g>
		<path d="M183.52,284.33c1.64,0.85,3.49,1.12,5.3,0.78c0.39-0.07,0.64-0.56,0.52-0.92c-0.13-0.41-0.51-0.6-0.92-0.52
			c-0.11,0.02-0.21,0.04-0.32,0.05c0.12-0.02-0.1,0.01-0.12,0.01c-0.19,0.02-0.38,0.03-0.57,0.03c-0.19,0-0.38,0-0.57-0.01
			c-0.11-0.01-0.22-0.02-0.32-0.03c-0.05-0.01-0.11-0.01-0.16-0.02c0.05,0.01,0.05,0.01,0,0c-0.77-0.12-1.46-0.34-2.08-0.67
			c-0.35-0.18-0.83-0.1-1.03,0.27C183.07,283.64,183.15,284.13,183.52,284.33L183.52,284.33z"/>
	</g>
</g>
</svg>
